<?xml version="1.0" encoding="iso-8859-1"?>
<!-- Generator: Adobe Illustrator 19.0.0, SVG Export Plug-In . SVG Version: 6.00 Build 0)  -->
<svg version="1.1" id="Capa_1" xmlns="http://www.w3.org/2000/svg" xmlns:xlink="http://www.w3.org/1999/xlink" x="0px" y="0px"
	 viewBox="0 0 480 480" style="enable-background:new 0 0 480 480;" xml:space="preserve">
<g>
	<path style="fill:#B3B3B3;" d="M280,376v-64h-64v96c0,26.51,21.49,48,48,48h128v-64h-96C287.164,392,280,384.837,280,376z"/>
	<path style="fill:#B3B3B3;" d="M216,216h64v64h-64V216z"/>
</g>
<path style="fill:#E6E6E6;" d="M232,216h32v-96C264,58.144,213.856,8,152,8S40,58.144,40,120v24h32v-24c0-44.183,35.817-80,80-80
	s80,35.817,80,80V216z"/>
<g>
	<path style="fill:#808080;" d="M328,216v88h32v-88c0-8.837-7.163-16-16-16S328,207.164,328,216z"/>
	<path style="fill:#808080;" d="M392,376h32v96h-32V376z"/>
</g>
<path style="fill:#B3B3B3;" d="M424,392h48v64h-48V392z"/>
<path style="fill:#6CBBC7;" d="M56,176l-33.944,33.944C13.057,218.945,8.001,231.152,8,243.88V248c0,26.51,21.49,48,48,48
	s48-21.49,48-48v-4.12c0.002-12.731-5.055-24.941-14.056-33.944L56,176z"/>
<path style="fill:#808080;" d="M200,280h96v32h-96V280z"/>
<path d="M472,384h-40v-8c0-4.418-3.582-8-8-8h-32c-4.418,0-8,3.582-8,8v8h-88c-4.418,0-8-3.582-8-8v-56h8c4.418,0,8-3.582,8-8v-8h56
	c4.418,0,8-3.582,8-8v-80c0-13.255-10.745-24-24-24s-24,10.745-24,24v72h-16v-8c0-4.418-3.582-8-8-8h-8v-56c0-4.418-3.582-8-8-8h-8
	v-88C272,53.726,218.274,0,152,0S32,53.726,32,120v24c0,4.418,3.582,8,8,8h32c4.418,0,8-3.582,8-8v-24c0-39.765,32.236-72,72-72
	s72,32.235,72,72v88h-8c-4.418,0-8,3.582-8,8v56h-8c-4.418,0-8,3.582-8,8v32c0,4.418,3.582,8,8,8h8v88
	c0.035,30.913,25.087,55.965,56,56h120v8c0,4.418,3.582,8,8,8h32c4.418,0,8-3.582,8-8v-8h40c4.418,0,8-3.582,8-8v-64
	C480,387.582,476.418,384,472,384z M336,216c0-4.418,3.582-8,8-8s8,3.582,8,8v72h-16V216z M152,32
	c-48.579,0.053-87.947,39.421-88,88v16H48v-16C48,62.562,94.563,16,152,16s104,46.562,104,104v88h-16v-88
	C239.947,71.421,200.579,32.053,152,32z M224,224h48v48h-48V224z M208,288h80v16h-80V288z M264,448c-22.08-0.026-39.974-17.92-40-40
	v-88h48v56c0,13.255,10.745,24,24,24h88v48H264z M416,464h-16v-80h16V464z M464,448h-32v-48h32V448z"/>
<path d="M61.656,170.344c-3.124-3.123-8.188-3.123-11.312,0L16.4,204.288C5.866,214.766-0.039,229.022,0,243.88V248
	c0.006,30.928,25.082,55.995,56.01,55.99c30.92-0.006,55.984-25.07,55.99-55.99v-4.12c0.042-14.861-5.864-29.12-16.4-39.6
	L61.656,170.344z M96,248c0,22.091-17.909,40-40,40s-40-17.909-40-40v-4.12c-0.028-10.612,4.189-20.795,11.712-28.28L56,187.312
	L84.288,215.6c7.523,7.485,11.74,17.668,11.712,28.28V248z"/>
<g>
</g>
<g>
</g>
<g>
</g>
<g>
</g>
<g>
</g>
<g>
</g>
<g>
</g>
<g>
</g>
<g>
</g>
<g>
</g>
<g>
</g>
<g>
</g>
<g>
</g>
<g>
</g>
<g>
</g>
</svg>
