<?xml version="1.0" ?><!DOCTYPE svg  PUBLIC '-//W3C//DTD SVG 1.1//EN'  'http://www.w3.org/Graphics/SVG/1.1/DTD/svg11.dtd'><svg enable-background="new 0 0 128 128" id="Слой_1" version="1.1" viewBox="0 0 128 128" xml:space="preserve" xmlns="http://www.w3.org/2000/svg" xmlns:xlink="http://www.w3.org/1999/xlink"><g><g><rect fill="#3EBBC4" height="16" width="4" x="86" y="31"/><rect fill="#3EBBC4" height="16" width="4" x="76" y="31"/><path d="M126,77H94V56h6v-4c-1.1,0-2-0.9-2-2V28c0-1.1,0.9-2,2-2v-4h-6V2H72v20h-6v4c1.1,0,2,0.9,2,2v22    c0,1.1-0.9,2-2,2v4h6v70h22V99h32V77z M76,6h14v16H76V6z M71.7,26h22.7c-0.2,0.6-0.3,1.3-0.3,2v22c0,0.7,0.1,1.4,0.3,2H71.7    c0.2-0.6,0.3-1.3,0.3-2V28C72,27.3,71.9,26.6,71.7,26z M76,122V56h14v21.2c-5.1,0.9-9,5.4-9,10.8s3.9,9.9,9,10.8V122H76z M122,95    H92c-3.9,0-7-3.1-7-7s3.1-7,7-7h30V95z" fill="#3EBBC4"/></g><g><rect fill="#3EBBC4" height="33" width="4" x="16" y="72"/><path d="M44,18v-2c0-7.7-6.3-14-14-14h-9C13.3,2,7,8.3,7,16v2h0v22H2v16h5v59c0,6.1,4.9,11,11,11s11-4.9,11-11V72    c0-4.8-3.4-8.9-8-9.8V56h9c7.7,0,14-6.3,14-14v-2H21V18H44z M21,6h9c4.8,0,8.9,3.4,9.8,8H11.2C12.1,9.4,16.2,6,21,6z M25,72v43    c0,3.9-3.1,7-7,7s-7-3.1-7-7V66h6h2C22.3,66,25,68.7,25,72z M17,62h-6v-6h6V62z M30,52H6v-8h33.8C38.9,48.6,34.8,52,30,52z M17,40    h-6V18h6V40z" fill="#3EBBC4"/><rect fill="#3EBBC4" height="4" width="10" x="17" y="46"/><path d="M14,115c0,2.2,1.8,4,4,4s4-1.8,4-4s-1.8-4-4-4S14,112.8,14,115z" fill="#3EBBC4"/></g></g></svg>