<svg width="250" height="458" xmlns="http://www.w3.org/2000/svg">
  <metadata>
    image/svg+xmlOpenclipartBlue Worker2010-10-19T19:53:42https://openclipart.org/detail/91543/blue-worker-by-bugmenotbugmenotBlueManSmilingWorker
  </metadata>
  <g>
    <title>
      background
    </title>
    <rect fill="none" id="canvas_background" height="402" width="582" y="-1" x="-1"/>
  </g>
  <g>
    <title>
      Layer 1
    </title>
    <path id="svg_1" fill="#ffffff" d="m0 0l250 0 0 458 -250 0 0-458z"/>
    <path id="svg_2" fill="#000000" d="m124.489998 6.7c4.469994-4.01 11.640007-3.64 16.120003 0.16 2.649994 0.06 5.309998 0.13 7.970001 0.13 3.62999-3.06 9.050003-3.19 13.029999-0.73 6.509995 4.49 16.5 1.49 21.639999 8.38 2.649994 3.999999 6.630005 6.999999 8.690002 11.400001 3.019989 6.039997 4.389999 12.709999 6.929993 18.939999 3.619995 9.290001 6.779999 18.830002 11.460007 27.66 6.360001 3.720001 13.049988 7.270004 18.039993 12.830002 2.690002 2.909996 4.470001 7.099998 3.01001 11.019997 -1.440002 6.520004-7.639999 10.560005-13.75 12.120003 4.449997 5.979996 3.679993 13.919998 2.789993 20.880005 -0.699997 5.769989-3.839996 10.98999-8.449997 14.479996 1.800003 5.330002 2.720001 11.289993 0.209991 16.580002 2.940002 1.209991 3.770004 4.659988 3.590012 7.539993 -0.300003 4.350006-1.270004 8.619995-2.310013 12.850006 6.540009 5.139999 8.770004 13.429993 11.320007 20.959991 1.100006 7.130005 2.130005 14.290009 2.569992 21.5 3.810013 1.440002 6.560013 4.680008 7.880005 8.480011 2.720001 7.439987 5.449997 15.23999 4.720001 23.289993 -0.479996 3.340012-2.119995 6.360001-3.479996 9.409988 -2.050003 4.210022-2.199997 9.120026-4.660004 13.150024 -3.490005 6.089996-9.740005 9.829987-16.029999 12.5 -1.75 7.559998-1.259995 15.619995-4.669998 22.75 -2.960007 6.439972-8.089996 11.72998-13.990005 15.549988 -4.039993 11.589996-2.069992 24.01001-0.020004 35.779999 2.710007-0.309998 6.210007 0.73999 6.990005 3.670013 2.139999 7.109985 3.410004 15.029999 0.759995 22.189972 5.810013 0.630005 12.200012 1.980011 15.930008 6.930023 5.220001 6.779999 6.559998 16.339996 4.240005 24.47998 5.759995 3.620026 4.089996 11.190002 5.859985 16.839996 -0.949997 2.350006-2.419998 4.580017-4.909988 5.470001 -8.529999 3.51001-17.919998 3.900024-26.979996 4.960022 -8.62001 0.100006-17.550003 2.089996-25.900009-0.970001 -11.479996-4.070007-21.059998-12.950012-26.599991-23.730011 -1.490005 0.589996-3.350006 1.5-4.680008 0.059998 -5.100006-4.470001-10.940002-9.779999-11.009995-17.119995 -3.400002 5.519989-6.890007 11.649994-12.820007 14.790009 -0.909996-0.619995-1.809998-1.240021-2.709999-1.860016 -6.82 18.420013-24.599998 32.610016-44.18 34.800018 -12.989998 0.629974-26.279999 0.639984-38.860001-3.080017 -4.599998-1.320007-8.829998-3.779999-12.249998-7.119995 0.209999-6.940002-0.450001-16.23999 6.67-20.109985 -2.310001-8.570007-0.35-18.090027 4.119999-25.660004 5.369999-8.910004 16.530003-11.540009 26.23-11.820007 -3.34-1.26001-7.099998-3.110016-7.939999-6.940002 -1.209999-7.320007 2.259998-14.209991 5.290001-20.630005 0.899998-2.139984 3.019997-3.199982 4.779999-4.529999 -3.5-5.089996-8.889999-9.48999-9.540001-16.019989 -0.130001-6.75 2.57-13.119995 5.260002-19.179993 -6.84 6.619995-13.350002 13.949982-21.959999 18.309998 -4.970001 1.039978-9.800001-3.810028-9.000002-8.779999 9.039999-6.75 18.090002-13.580017 26.120001-21.540009 -6.349998 2.269989-12.860001 5.459991-19.799999 4.329987 -3.799999-3.160004-3.960001-8.669983-3.109999-13.160004 1.32-4.569977 5.08-7.819977 8.890001-10.389984 -4.420002-2.369995-8.490002-6.140015-9.220001-11.339996 -1.550001-5.029999 1.709999-9.730011 3.48-14.240021 -4.6 0.190002-9.690001 1.330017-13.83-1.319977 -4.190001-2.710022-5.71-7.77002-7.91-11.980011 -2.82-5.339996-1.3-12.119995 2.45-16.600006 -2.45-5.009995-2.06-10.699997-1.89-16.110001 0.950001-8.48999 2.98-17.039993 7.309999-24.479996 2.320002-3.990005 6.300001-6.520004 10.220001-8.720001 11.469999-6.23999 23.92-11.039993 36.869997-12.919998 -5.189999-3.759995-11.279999-7.25-13.709999-13.550003 -3.25-8.389999-0.470001-18.029999 5.25-24.660004 -5.709999-6.679993-6.079998-16.229996-5.189999-24.549988 -5.080002-3.18-10.690002-7.630005-11.030003-14.120003 -0.279999-1.970001 0.480003-3.840004 1.310001-5.580002 5.130001-7.040001 12.77-11.5 19.66-16.559998 8.280003-12.010002 10.579998-26.860001 14.200001-40.720003 1.639999-5.93 5.489998-11.1 10.68-14.4 3.099998-4.929999 8.860001-7.03 14.389999-7.739999 4.529999-0.28 8.410004-4 13.090004-2.71 3.939995 1.28 8.43 1.77 12.369995 0.5l0 0.000005z"/>
    <path id="svg_3" fill="#fece00" d="m125.459999 7.83c1.580002-0.8 3.189995-1.55 4.840004-2.21 -0.230011 13.14-0.520004 26.299998-0.139999 39.439998 0.409988 4.990002 0.199997 10.210003 2.199997 14.900002 2.309998-8.460003 1.509995-17.280003 1.649994-25.93 0.190002-9.490002-1.319992-18.98 0.01001-28.430001 1.889999 0.63 3.720001 1.429999 5.509995 2.329999 -1.929993 6.2-1.429993 12.75-1.210007 19.140001 0.820007 9.969999 1.180008 19.99 0.75 29.979998 -0.369995 5.09-0.75 10.32-2.859985 15.029999 -0.730011 1.980003-2.62001 3.040001-4.26001 4.160004 -1.569992-1.190002-3.259995-2.43-3.849991-4.410004 -2.350006-6.339996-2.570007-13.199997-3.01001-19.869999 -0.719994-14.709999 0.270004-29.42 0.370003-44.130001l0 0.000006z"/>
    <path id="svg_4" fill="#fdf6a8" d="m130.300003 5.62c1.240005 0 2.479996 0 3.720001-0.02 -1.330002 9.45 0.179993 18.940001-0.009995 28.429999 -0.139999 8.650002 0.659988 17.470001-1.650009 25.93 -2-4.689999-1.789993-9.91-2.199997-14.899998 -0.380005-13.140001-0.089996-26.299999 0.139999-39.44l0-0.000002z"/>
    <path id="svg_5" fill="#fece00" d="m149.649994 8.06c4.669998-3.3 10.619995-1.47 14.610001 2 -1.160004 3.88-2.199997 7.87-1.940002 11.96 0.790009 12.32 3.830002 24.510002 3.089996 36.900002 -0.309998 3.32-0.860001 7.679996-4.409988 9.109997 -2.630005 0.600006-4.01001-2.239998-4.910004-4.209995 -3.639999-9.860001-3.630005-20.530003-5.240005-30.810001 -1.360001-8.23-2.190002-16.629999-1.199997-24.950001l0-0.000001z"/>
    <path id="svg_6" fill="#fdf6a5" d="m153.729996 6.7c1.850006 0.19 3.669998 0.57 5.389999 1.28 -2.710007 9.880001 0.360001 20.02 0.820007 29.979999 0.059998 5.369999 1.089996 11.029999-0.900009 16.18 -2.630005-5.68-2.690002-12.079998-3.479996-18.18 -0.729996-9.74-2.790009-19.459999-1.830002-29.26l0 0.000001z"/>
    <path id="svg_7" fill="#fece00" d="m102.650002 10.07c1.470001-0.63 2.949997-1.259999 4.440002-1.84 -0.230003 0.280001-0.68 0.830001-0.910004 1.110001 0.32 7.039999 1.260002 14.09 0.529999 21.139999 -1.110001 8.27 0.300003 16.579998-0.329994 24.879997 2.479996-4.059998 3.379997-8.799999 3.799995-13.48 1.419998-11.349998 0.620003-22.799997 0.629997-34.199999 1.610001 0.4 3.210007 0.81 4.830002 1.210001 -0.610001 15.69 1.360001 31.55-1.760002 47.090001 -1.209999 5.459999-2.809998 12.259998-8.759995 14.329998 -3.200005-3.639999-3.090004-8.75-3.260002-13.299999 -0.220001-9.369999 1.959999-18.600002 1.669998-27.969999 -0.110001-6.33-0.839996-12.630001-0.879997-18.97l0 0.000001z"/>
    <path id="svg_8" fill="#fdf6a7" d="m107.089996 8.23c1.230003-0.23 2.470001-0.409999 3.720001-0.55 -0.010002 11.4 0.790001 22.850001-0.630005 34.200001 -0.419998 4.68-1.32 9.419998-3.799995 13.48 0.629997-8.299999-0.779999-16.610001 0.330002-24.879999 0.729996-7.050001-0.210007-14.100002-0.530006-21.14 0.230003-0.28 0.68-0.83 0.910004-1.11l0-0.000002z"/>
    <path id="svg_9" fill="#fece00" d="m116.489998 9.24c2.709999-0.05 5.419998-0.15 8.120003-0.429999 -0.170006 17.37-1.43 34.790002 0.290001 52.12 0.629997 4.650002 1.099998 9.610001 3.699989 13.669998 1.230011 2.059998 4.150009 2.68 6 1.040001 3.060013-2.599998 3.76001-6.860001 4.5-10.599998 1.910004-13.260002 0.800003-26.690002-0.009995-39.990004 -0.289993-5.510002-0.319992-11.12 1.070007-16.5 2.860001 0.02 5.709991 0.049999 8.569992 0.059999 -0.819992 7.82-0.130005 15.719999 1.100006 23.459999 1.769989 10.599998 1.690002 21.610001 5.360001 31.830002 0.909988 2.469997 2.769989 5.649998 5.909988 4.950001 3.380005-0.950005 4.530014-4.770004 4.960007-7.860004 0.899994-7.27-0.029999-14.619999-0.949997-21.849998 -1-9.66-3.610001-19.68 0.020004-29.129999 4.189987 0.57 8.389999 1.25 12.439987 2.509999 2.990005 0.81 4.529999 3.740001 6.590012 5.78 -5.410004 0.25-6.889999 6.200001-7.650009 10.540001 -1.729996 12.220001-0.729996 24.93 3.139999 36.659996 1.699997 4.490005 4.12001 9.960007 9.380005 10.960007 6.699997 1.189995 13.770004 0.149994 19.949997-2.670006 7.949997 5.220001 18.37001 9.310005 21.520004 19.150002 -2.149994-1.230003-4.300003-2.480003-6.240005-4.029999l0.210007-0.700005 -1.440002 0.090004c-3.139999-1.669998-6.270004-3.440002-9.729996-4.379997 -0.410004-0.120003-1.240005-0.350006-1.650009-0.470001 -6.599991-1.310005-13.259995 1.009995-19.649994 2.540001 -19.559998 5.349998-38.779999 12.399994-59 14.939995 -11.400002 1.170006-22.800003-0.93-33.940002-3.149994 -11.129997-2.350006-22.139992-5.290001-32.979996-8.730003 -8.709999-3.169998-18.73-1.090004-26.200001 4.169998 3.529999-9.239998 12.810001-14.260002 20.610001-19.470001 4.960003 1.810005 10.390003 1.330002 15.549999 0.940002 6.849998-0.830002 11.150002-7.209999 13.370003-13.18 3.75-10.329998 4.400002-21.68 2.659996-32.49 -0.709999-4.550001-2.269997-9.01-5.129997-12.66 3.559998-4.420001 9.479996-5.210001 14.68-6.280001 0.519997 9.25 1.550003 18.530001 0.769997 27.790001 -0.949997 9.02-2.139999 18.18-0.709999 27.209999 0.490005 2.279999 1.290001 5.529999 4.130005 5.730003 4.5-1.140007 6.449997-5.920006 7.739998-9.920002 4.720001-16.830002 2.309998-34.450003 2.940002-51.650003l-0.000008 0.000008z"/>
    <path id="svg_10" fill="#ffbc01" d="m75.349998 32.57c1.470001-6.459999 5.82-11.84 11.370003-15.32 6.68 10.870001 6.199997 24.540001 4.009995 36.66 -1.719994 7.540001-4.779999 16.52-12.699997 19.460003 -5.519997 1.299995-11.330002 0.959999-16.869999 0.009995 7.829998-12.329998 10.889996-26.799995 14.189999-40.809998z"/>
    <path id="svg_11" fill="#ffbc01" d="m179.300003 22.549999c0.919998-1.98 3.380005-4.300001 5.600006-2.67 6.589996 5.299999 8.119995 14.070002 10.829987 21.6 3.990005 10.649998 7.75 21.439999 12.780014 31.66 -5.950012 2.529999-12.630005 3.610001-19.040009 2.550003 -4.5-0.690002-6.779999-5.120003-8.389999-8.890007 -3.460007-8.829998-4.5-18.429996-4.559998-27.849995 0.179993-5.530003 0.399994-11.300003 2.779999-16.400002z"/>
    <path id="svg_12" fill="#fee1a6" d="m77.480003 33.529999c1.589996-4.23 3.139999-8.719999 6.550003-11.869999 0.949997 5.65-1.240005 11.129997-3.050003 16.379997 -1.57 3.720001-2.839996 7.91-6.209999 10.440002 -0.650002-5.150002 1.080002-10.150002 2.709999-14.950001z"/>
    <path id="svg_13" fill="#fee2a5" d="m184.389999 24.83c0.300003-0.52 0.880005-1.539999 1.169998-2.059999 4.930008 7.93 8.960007 17.200001 8.449997 26.700001 -3.190002-2.630001-4.599991-6.619999-6.099991-10.330002 -1.690002-4.609997-3.290009-9.369999-3.520004-14.309999z"/>
    <path id="svg_14" fill="#e39d05" d="m78.300003 83.449997c18.889999 4.57 38.440002 2.389999 57.660004 2.760002 14.789993 0.279999 29.569992-0.540001 44.309998-1.790001 -2.020004 1.75-4.850006 1.419998-7.309998 1.779999 -12.300003 1.239998-24.589996 3.050003-36.990005 2.849998 -19.389999 0.040001-38.970001-0.119995-57.989998-4.360001l0.32-1.239998z"/>
    <path id="svg_15" fill="#a04c03" d="m211.649994 83.449997c0.410004 0.120003 1.240005 0.349998 1.649994 0.470001 -0.339996 0.040001-1.009995 0.110001-1.339996 0.150002 3.729996 1.290001 7.160004 3.549995 11.070007 4.229996l1.440002-0.089996 -0.210007 0.699997 -0.389999 0.779999c-1.600006 5.090004-6.540009 7.32-11.220001 8.810005l-0.539993 0.199997c-5.220001-3.099998-6.820007-9.169998-7.680008-14.779999 2.399994-0.169998 4.800003-0.440002 7.220001-0.470001z"/>
    <path id="svg_16" fill="#000000" d="m211.960007 84.07c0.330002-0.040001 1-0.110001 1.339996-0.150002 3.460007 0.940002 6.589996 2.709999 9.729996 4.380005 -3.909988-0.68-7.339996-2.940002-11.069992-4.230003z"/>
    <path id="svg_17" fill="#210b07" d="m194.389999 86.230003c2.929993-0.75 5.889999-1.389999 8.860001-2.010002 0.830002 3.5 1.449997 7.110001 3.069992 10.360001 1.87001 3.550003 6 4.840004 8.51001 7.790001 2.099991 5.239998-0.630005 10.82-2.76001 15.599998 -2.839996 5.720001-7.929993 12.190002-15.12999 11.040009 -0.230011-1.640007-0.419998-3.290009-0.550003-4.94001 3.960007-1.639999 8.520004-2.059998 12.050003-4.579994 0.729996-2.480003 0.5-5.100006 0.599991-7.650002 -2.679993 3.159996-5.429993 6.269997-8.479996 9.080002 -3.089996-7.520004 7.860001-11.790001 5.710007-19.190002 -2.990005-5.840004-8.699997-9.739998-11.880005-15.5z"/>
    <path id="svg_18" fill="#140a0a" d="m188.199997 87.860001c2.059998-0.550003 4.130005-1.089996 6.190002-1.629997 3.179993 5.759995 8.889999 9.659996 11.880005 15.5 2.149994 7.399994-8.800003 11.669998-5.710007 19.189995 3.050003-2.809998 5.800003-5.919998 8.479996-9.079994 -0.099991 2.549995 0.130005 5.169998-0.599991 7.649994 -3.529999 2.520004-8.090012 2.940002-12.050003 4.580002 0.259995-2.669998 0.720001-5.379997 0.410004-8.07 -2.460007-3.989998-6.090012-7.199997-7.970001-11.57 3.25-2.360001 3.959991-6.699997 3.799988-10.449997 -0.169998-2.770004-2.48999-4.480003-4.429993-6.120003z"/>
    <path id="svg_19" fill="#a04c03" d="m48.349998 89.610001c3.860001-0.919998 7.799999-1.510002 11.77-1.279999 -0.299999 3.199997-0.73 6.389999-1.259998 9.57 -1.640003 0.839996-3.280003 1.669998-4.91 2.540001 -1.820004-1.270004-4-2.400002-4.920002-4.560005 -1-1.939995-0.639999-4.179993-0.68-6.269997z"/>
    <path id="svg_20" fill="#210b07" d="m61.029999 88.440002c2.549999 0.730003 5.090004 1.519997 7.610001 2.349998 1.760002 2.870003 3.57 5.720001 5.339996 8.599998 -1.709999-0.769997-3.409996-1.539993-5.109993-2.309998 -0.570007 2.620003-1.270004 5.290001-0.890007 7.980003 0.380005 3.729996 2.5 6.919998 4.230003 10.139999 -2.589996-1.770004-5.120003-3.630005-7.639999-5.489998 0.199997 2.75 0 5.719994 1.540001 8.149994 1.540001 2.670006 4.220001 4.350006 6.619995 6.170006 -1.469994 0.549995-2.989998 0.959999-4.529999 1.209999 -1.889999-1.610001-3.579994-3.510002-4.559998-5.810005 -2.689999-6.079994-4.02-12.739998-4.119999-19.369995 0.66-3.850006 1.609997-7.68 1.509998-11.620003z"/>
    <path id="svg_21" fill="#482816" d="m182.449997 89.510002c4.479996-2.379997 10.619995 2.230003 8.910004 7.160004 -0.980011 1.199997-2.01001 2.349998-3.020004 3.519997 -0.220001-1.910004 0.110001-3.970001-0.699997-5.760002 -1.460007-1.909996-3.410004-3.339996-5.190002-4.919998z"/>
    <path id="svg_22" fill="#ff7f00" d="m40.299999 93.949997c2.59-1.610001 5.27-3.080002 8.049999-4.339996 0.040001 2.089996-0.32 4.329994 0.68 6.269997 0.920002 2.159996 3.099998 3.290001 4.920002 4.559998 -1.290001 1.980003-2.390003 4.07-3.390003 6.209999 -4.52-3.129997-9.369999-6.879997-10.259998-12.699997z"/>
    <path id="svg_23" fill="#ffffff" d="m78.989998 90.349998c16.919998 1.540001 33.43 9.059998 50.609993 6.199997 12.310013-1.259995 24.51001-3.32 36.710007-5.290001 -5.589996 2.650002-11.949997 2.920006-17.940002 4.170006 -9.819992 0.869995-19.490005 3.790001-29.419998 3.059998 -13.639999-0.849998-26.669998-5.300003-39.959999-8.139999z"/>
    <path id="svg_24" fill="#845335" d="m162.679993 95.300003c6.660004-1.650002 13.190002-3.82 19.770004-5.790001 1.779999 1.580002 3.729996 3.010002 5.190002 4.919998 0.809998 1.790001 0.479996 3.850006 0.699997 5.760002 1.009995-1.169998 2.039993-2.32 3.020004-3.519997 -0.110001 2.689995-1.060013 5.349998-3.640015 6.57 0.610001 5.559998 5.5 9.07 8.25 13.580002 -0.289993 4.299995-1.399994 8.859993 0.290009 13 2.380005 4.139999 6.899994 6.619995 8.899994 11 2.600006 6.619995 3.190002 14.119995 0.76001 20.899994l-0.020004 0.080002c-7.139999 0.5-13.660004 4.779999-17.309998 10.869995l-0.410004 0.180008c-8.509995 2.910004-13.029999 11.520004-20.979996 15.330002 -12.139999 5.839996-24.570007 11.860001-38.089996 13.549988 -8.090004 0.920013-16.740005 0.360001-23.860008-3.939987 -4.260002-2.279999-7.129997-6.5-11.650002-8.360001l-0.25-0.12001c-3.939995-3.919998-8.409996-7.319992-12-11.580002l-0.079994-0.079987 -0.120003 0.119995 -0.450005 0.479996 -0.589996-0.970001c-1.809998-3.639999-5.699997-5.319992-8.900002-7.5 -5.339996-3.449997-11.219997-6.940002-14.129997-12.860001 -2.16-4.669998-2.920002-10.220001-1.400002-15.189987 1.920002-5.080002 8.010002-5.560013 12.169998-7.930008 3.810005-1.789993 5.700005-5.75 7.150002-9.470001 0.68-0.729996 1.360001-1.470001 2.040001-2.199997 0.389999-4.080002-1.169998-8.25 0.020004-12.239998 3.099998-1.389999 7.059998-0.090004 9.919998-2.550003 -0.010002 1.889999 0.009995 3.800003 0.650002 5.610001l0 0.120003c-0.060005 2.769997 0.599998 5.469994 1.479996 8.07 -0.849998 0.889999-1.659996 1.82-2.440002 2.769997 0.68-0.459999 2.040001-1.370003 2.720001-1.830002 -0.169998 2.450005-0.579994 4.870003-1.059998 7.279999 -1.099998 0.940002-2.099998 1.970001-3.090004 3.020004 0.880005-0.470001 1.75-0.949997 2.610001-1.449997 5.75 1.429993 11.950005-0.87001 17.459999 1.819992 2.530006 1.210007 5.480003 3.169998 5.690002 6.25 -0.389999 2.710007-1.43 5.26001-1.940002 7.949997 3.730003 0.900009 5.82-3.139999 8.130005-5.309998 0.309998-0.080002 0.939995-0.229996 1.25-0.309998 4.159996-0.979996 8.25-2.589996 12.599998-2.399994 4.979996-0.190002 9.729996 1.419998 14.5 2.619995 -5.100006-3.389999-11.539993-3.559998-17.449997-3.380005 -1.830002-4.309998-2.950005-8.869995-3.670006-13.489998 -0.619995-3.209999-1.379997-6.929993-4.559998-8.599998 0.82-2.129997 2.800003-4.619995 0.919998-6.779999 -3.290001-3.43-8.369995-4.260002-12.919998-3.959999 -5.68 0.339996-11.340004-1.389999-17-0.57 -1.669998 0.019997-2.550003 1.459999-3.57 2.529999 -3.309998-3.480003-4.809998-8.07-5.419998-12.739998 13.839996 3.470001 27.829994 6.849998 42.139999 7.489998 7.289993 0.43 14.459991-1.139999 21.610001-2.330002 0.860001 2.010002 2.020004 3.860001 3.169998 5.709999 -0.520004 1.25-1.119995 2.460007-1.690002 3.68 0.529999 1.43 1.050003 2.850006 1.570007 4.290001 -2.470001 2.840004-3.160004 6.630005-2.960007 10.300003 -0.949997 8.340004 4.360001 15.43 5.729996 23.349998 0.820007 3.930008-2.110001 7.5-5.659988 8.759995 -5.550003 2.020004-11.580002 2.080002-17.410004 1.850006 -0.690002 0.430008-1.380005 0.860001-2.07 1.300003 8.349998-0.669998 18.230003 0.690002 24.799995-5.680008 3.529999 0.850006 6.779999-0.679993 9.550003-2.73999 2.160004-1.320007 4.740005-2.75 5.300003-5.470001 -0.020004-1.710007-0.600006-3.330002-1.029999-4.970001 -1.779999-0.529999-3.570007-1.059998-5.410004-1.399994 -0.699997-2.030014-1.190002-4.12001-1.449997-6.240005 6-1.050003 11.979996-2.180008 18-3.050003 2.830002-0.459991 5.23999 1.460007 7.75 2.449997 -1.12001-1.199997-2.330002-2.37999-3.900009-2.949997 0.150009-1.949997 0.320007-3.900002 0.62001-5.830002l0.12999-0.829994c1.350006-3.18 2.669998-6.580002 1.380005-10.029999 2.880005-1.209999 3.020004-6.040001-0.130005-6.970001 -6.720001-2.93-14.279999-2.169998-21.389999-3.370003 0.460007-2.110001-0.080002-4.639999 1.5-6.360001 0.779999 1.510002-0.569992 4.870003 1.5 5.310005 -0.440002-1.82-0.769989-3.660004-0.839996-5.530006z"/>
    <path id="svg_25" fill="#ff7f00" d="m212.649994 98.5c4.679993-1.489998 9.619995-3.720001 11.220001-8.809998 2.100006 1.389999 4.160004 2.829994 6.190002 4.329994 -0.37001 7.200005-6.930008 11.32-13.130005 13.270004 0-3.450005-1.220001-6.910004-4.279999-8.790001z"/>
    <path id="svg_26" fill="#140a0a" d="m68.639999 90.790001c4.080002 1.160004 8.139999 2.389999 12.25 3.43 0.169998 4.589996 1.699997 9.010002 4.360001 12.739998 -2.610001 1.18-5.480003 1.139999-8.290001 1.020004 -2.949997 4.079994-0.559998 9.139999-0.870003 13.689995 -1.119995 0.790001-2.25 1.560005-3.359993 2.360001 -2.400002-1.82-5.080002-3.5-6.620003-6.169998 -1.540001-2.43-1.340004-5.400002-1.540001-8.150002 2.519997 1.860001 5.050003 3.720001 7.639999 5.489998 -1.729996-3.219994-3.849998-6.409996-4.229996-10.139999 -0.380005-2.689995 0.32-5.360001 0.889999-7.979996 1.699997 0.769997 3.399994 1.540001 5.110001 2.309998 -1.770004-2.879997-3.580002-5.729996-5.340004-8.599998z"/>
    <path id="svg_27" fill="#140a0a" d="m159.149994 100.010002c-1.929993-0.199997-1.899994-4.480003 0.369995-2.989998 0.410004 1.079994 0.290009 2.07-0.369995 2.989998z"/>
    <path id="svg_28" fill="#845335" d="m152.039993 98.199997c1.270004-0.269997 2.539993-0.449997 3.830002-0.540001 0.830002 1.32 1.559998 2.709999 2.319992 4.080002 -0.860001 0.199997-2.579987 0.620003-3.439987 0.830002 -0.170013 0.049995-0.5 0.169998-0.670013 0.229996 -0.519989 0.099998-1.559998 0.290001-2.079987 0.389999 0-1.669998 0.019989-3.329994 0.039993-4.989998z"/>
    <path id="svg_29" fill="#140a0a" d="m146.539993 99.489998c1.470001-0.300003 2.940002-0.589996 4.410004-0.879997 -0.050003 2.629997 0.029999 5.269997 0.819992 7.799995 -2.110001-2.009995-3.940002-4.290001-5.229996-6.919998z"/>
    <path id="svg_30" fill="#845335" d="m51.259998 111.989998c0.009998-5.029999 1.75-10.800003 6.939999-12.709999 0.34 3.510002 0.75 7.029999 1.139999 10.540001 -2.679996 4.509995-5.449997 11.049995-1.289997 15.540001l1.41 0.419998c1.02 0.559998 2.029999 1.129997 3.049999 1.709999 -1.889999 1.489998-3.760002 3.000008-5.59 4.560005 -4.950001-5.410004-5.580002-13.080002-5.66-20.060005z"/>
    <path id="svg_31" fill="#210b07" d="m154.080002 102.800003c0.169998-0.059998 0.5-0.18 0.669998-0.230003 2.139999 0.410004 4.520004 0.300003 5.75 2.450005 -2.369995 0.379997-4.709991 0.869995-7.080002 1.229996 -0.289993-0.579994-0.869995-1.729996-1.160004-2.309998l1.5 0.190002c0.080002-0.330002 0.240005-1 0.320007-1.330002z"/>
    <path id="svg_32" fill="#210b07" d="m160.860001 102.919998c6.580002 1.260002 13.490005 0.550003 19.860001 2.919998 1.679993 0.410004 2.649994 1.950005 2.710007 3.630005 -4.180008 0.189995-7.910004-1.990005-11.779999-3.190002 -3.490005-1.279999-7.26001-1.470001-10.940002-1.279999 0.039993-0.520004 0.110001-1.560005 0.149994-2.080002z"/>
    <path id="svg_33" fill="#140a0a" d="m153.419998 106.25c2.369995-0.360001 4.710007-0.849998 7.080002-1.230003l0.209991-0.019997c3.680008-0.190002 7.450012 0 10.940002 1.279999 3.87001 1.200005 7.600006 3.380005 11.779999 3.190002 -1.149994 1.07-2.37999 2.059998-3.599991 3.040001 -6.270004-1.560005-12.220001-5.630005-18.930008-4.290001 -4.029999 0.839996-8.440002 1.139999-11.789993 3.82 -0.25-0.919998-0.770004-2.75-1.020004-3.669998l0.960007-0.139999c0.48999-0.25 1.470001-0.740005 1.959991-0.990005 1.040009 0.380005 2.089996 0.75 3.139999 1.120003 -0.179993-0.529999-0.539993-1.580002-0.729996-2.110001z"/>
    <path id="svg_34" fill="#210b07" d="m89.370003 106.110001c6.529999-1.339996 13.090004 0.779999 19.639999 0.330002 4.620003-0.290001 10.230003 1.040001 12.080002 5.82l-0.849998-0.540001c-3.860001-2.730003-8.710007-3.239998-13.280006-3.699997 -6.529999-0.690002-12.709999 1.899994-18.959999 3.309998l0-3.200005c0.340004-0.5 1.030006-1.509995 1.370003-2.019997z"/>
    <path id="svg_35" fill="#210b07" d="m149.050003 108.230003c-1.279999-1.360001 1.830002-2.940002 1.960007-0.989998 -0.490005 0.25-1.470001 0.739998-1.960007 0.989998z"/>
    <path id="svg_36" fill="#140a0a" d="m88 111.330002c6.25-1.409996 12.43-4 18.959999-3.309998 4.57 0.459999 9.419998 0.970001 13.279999 3.699997 -0.07 0.700005-0.190002 2.080002-0.260002 2.770004 -3.82-2.540001-8.459999-3.120003-12.889999-3.720001 -5.829994-0.670006-11.329994 1.82-16.82 3.329994 -0.759995-0.929993-1.509995-1.849998-2.269997-2.769997z"/>
    <path id="svg_37" fill="#845335" d="m148.669998 113.400002c4.429993-3.169998 10.059998-3.889999 15.339996-4.43 5.589996 0.379997 10.639999 3.220001 15.940002 4.830002 0.520004-0.389999 1.570007-1.18 2.089996-1.580002 1.290009 3.450005-0.029999 6.849998-1.37999 10.029999 -4.060013-5.379997-11.360001-6.729996-17.690002-7.159996 -2.37001-0.400002-4.470001 0.75-6.080002 2.389999 1.099991-0.440002 2.179993-0.93 3.25-1.43 7.279999-0.419998 15.470001 1.199997 20.389999 7.029999 -0.300003 1.93-0.470001 3.879997-0.619995 5.830002l-1.530014-0.470001c0.150009-1.889999 0.180008-4.099998-1.689987-5.199997 -5.860001-4.120003-13.690002-4.25-20.460007-2.82 -4.679993 1.729996-3.050003 7.779991-2.839996 11.589989 -0.940002 0.570007-1.860001 1.150009-2.790009 1.740005 2.490005-0.440002 4.980011-0.849991 7.460007-1.289993 0.259995 2.119995 0.75 4.209991 1.449997 6.23999 -3.139999-0.009995-6.23999 0.610001-9.300003 1.300003 -2.509995-6.139999-5.069992-12.93-2.309998-19.469994 -0.75 1.039993-1.479996 2.099998-2.190002 3.169998 -0.199997-3.669998 0.490005-7.459999 2.960007-10.300003z"/>
    <path id="svg_38" fill="#845335" d="m216.449997 109.75c3.410004 5.860001 2.880005 12.889999 2.110001 19.360001 -0.740005 5.360001-3.419998 10.559998-8.139999 13.430008 -1.180008-2.170013-2.380005-4.320007-3.619995-6.450012 1.279999-0.830002 2.569992-1.669998 3.87999-2.470001l1.340012 0.110001c4.23999-3.539993 2.25-9.599998 0.25-13.809998 1.679993-3.269997 3.029999-6.689995 4.179993-10.169998z"/>
    <path id="svg_39" fill="#845335" d="m59.459999 125.779999c-4.73-3.870003-2.509998-10.529999 0.150002-14.940002 1.469997 5.25 2.989998 10.860001 7.209999 14.640007 -1.379997 0.699997-2.75 1.409996-4.100002 2.129997l-0.209999-0.120003c-1.02-0.579994-2.029999-1.150002-3.049999-1.709999z"/>
    <path id="svg_40" fill="#845335" d="m89.5 115.209999c5.519997-1.019997 10.739998-3.800003 16.480003-3.419998 4.849998 0.389999 10.019997 1.029999 13.879997 4.290001 3.18 1.669998 3.940002 5.389999 4.559998 8.599998 0.720001 4.620003 1.840004 9.18 3.669998 13.489998 -3.389999 0.369995-6.789993 1.229996-9.649994 3.160004 -0.310005 0.080002-0.940002 0.229996-1.25 0.309998 -2.310005 2.169998-4.400002 6.210007-8.130005 5.309998 0.510002-2.690002 1.550003-5.240005 1.940002-7.949997 -0.209999-3.080002-3.160004-5.040009-5.690002-6.25 -5.509995-2.690002-11.709999-0.389999-17.459999-1.820007 2.639999-1.779999 5.800003-3.139992 9.029999-2.279999 7.220001 1.410004 14.940002 1.580002 21.470001 5.330002l-1.799995-2.25c0.299995-3.919998 2.269997-9.829994-1.990005-12.25 -7-1.809998-15.18-1.479996-21.25 2.800003 -2.099998 1.18-1.279999 3.68-0.93 5.550003 -1.360001 0.48999-2.719994 0.970001-4.049995 1.529999 0.479996-2.410004 0.889999-4.830002 1.059998-7.279999 2.440002-1.889999 4.779999-4.080002 7.770004-5.030006 5.359993-1.549995 11.049995-0.049995 16.419998-1.479996 -4.669998-0.309998-9.389999-0.300003-14.050003 0.129997 -4.040001 0.389999-7.400002 2.920006-10.419998 5.440002 -0.880005-2.599998-1.540001-5.300003-1.480003-8.07 0.470001 0.540001 1.400002 1.610001 1.870003 2.139999z"/>
    <path id="svg_41" fill="#000000" d="m99.529999 115.699997c4.660004-0.43 9.379997-0.440002 14.050003-0.129997 -5.370003 1.43-11.060005-0.07-16.420006 1.479996 -2.989998 0.950005-5.329994 3.139999-7.769997 5.029999 -0.68 0.459999-2.040001 1.370003-2.720001 1.830002 0.779999-0.949997 1.590004-1.879997 2.440002-2.769997 3.019997-2.520004 6.379997-5.050003 10.419998-5.440002z"/>
    <path id="svg_42" fill="#000000" d="m156.889999 117.480003c1.610001-1.639999 3.710007-2.790001 6.080002-2.389999 6.330002 0.43 13.630005 1.779999 17.690002 7.159996l-0.130005 0.830002c-4.919998-5.830002-13.110001-7.449997-20.389999-7.029999 -1.069992 0.5-2.149994 0.989998-3.25 1.43z"/>
    <path id="svg_43" fill="#000000" d="m93.309998 122.279999c6.07-4.279999 14.25-4.610001 21.25-2.800003 4.260002 2.420006 2.290001 8.330002 1.989998 12.25l1.800003 2.25c-6.529999-3.75-14.25-3.919998-21.470001-5.330002 -3.229996-0.859993-6.389999 0.5-9.029999 2.279999 -0.860001 0.5-1.730003 0.980011-2.610001 1.450012 0.989998-1.050003 1.989998-2.080002 3.089996-3.020004 1.330002-0.559998 2.690002-1.040009 4.050003-1.529999 -0.349998-1.870003-1.169998-4.370003 0.93-5.550003z"/>
    <path id="svg_44" fill="#000000" d="m156.229996 120.419998c6.770004-1.43 14.600006-1.300003 20.460007 2.82 1.869995 1.099998 1.839996 3.309998 1.689987 5.200005l1.529999 0.470001c1.570007 0.569992 2.780014 1.75 3.900009 2.949997 -2.51001-0.990005-4.919998-2.910004-7.75-2.449997 -6.020004 0.869995-12 2-18 3.049988 -2.479996 0.440002-4.970001 0.850006-7.460007 1.290009 0.930008-0.589996 1.850006-1.169998 2.790009-1.740005 -0.210007-3.809998-1.840012-9.859993 2.839996-11.589996z"/>
    <path id="svg_45" fill="#ffffff" d="m94.040001 123.18c3.550003-3 8.459999-3.480003 12.919998-3.629997 3.130005 0.279999 6.860001-0.190002 9.07 2.549995 0.080002 2.889999 0.029999 5.790001-0.089996 8.689995 -1.870003-0.25-3.730003-0.569992-5.590004-0.819992 0.860001-0.729996 1.690002-1.490005 2.490005-2.279999 -1.200005-1.330002-3.120003-1.630005-4.600006-2.529999 0.520004-0.520004 1.550003-1.570007 2.07-2.090004 -3.649994-0.980003-8.220001 1.269997-8.239998 5.390007 -3.089996-0.500008-6.159996-1.080009-9.209999-1.740005 0.169998-1.260002-0.139999-2.809998 1.18-3.540001z"/>
    <path id="svg_46" fill="#000000" d="m145.710007 123.699997c0.710007-1.07 1.440002-2.129997 2.190002-3.169998 -2.76001 6.540001-0.199997 13.330002 2.309998 19.470001 3.059998-0.690002 6.160004-1.309998 9.300003-1.300003 1.839996 0.339996 3.62999 0.869995 5.410004 1.399994 0.429993 1.639999 1.009995 3.26001 1.029999 4.970001 -0.560013 2.720001-3.139999 4.150009-5.300003 5.470001 2.139999-2.389999 5.169998-4.699997 4.479996-8.339996 -3.779999-3.970001-9.669998-2.330002-14.410004-1.610001 0.820007 2.809998 1.610001 5.649994 1.810013 8.580002 -0.410004 1.389999-0.910004 2.75-1.430008 4.110001 -6.569992 6.369995-16.449997 5.009995-24.799995 5.679993 0.689995-0.440002 1.379997-0.869995 2.07-1.300003 5.830002 0.230011 11.860001 0.170013 17.410004-1.849991 3.549988-1.259995 6.479996-4.830002 5.659988-8.76001 -1.369995-7.919998-6.679993-15.009995-5.729996-23.349991z"/>
    <path id="svg_47" fill="#ffffff" d="m155.029999 121.989998c6.339996-2.019997 13.699997-1.860001 19.699997 1.199997 1.520004 0.93 4.150009 2.910004 2.059998 4.660004 -2.799988 0.920006-5.75 1.159996-8.619995 1.749992 -0.110001-0.509995-0.330002-1.519989-0.440002-2.029991l-1.199997-0.590004c-0.130005-0.479996-0.380005-1.439995-0.509995-1.919998l-0.720001 0.050003 0.860001 2.089996c-0.900009-0.419998-1.790009-0.839996-2.680008-1.260002 0.330002-0.479996 0.980011-1.43 1.300003-1.909996 -3.970001-1.800003-9.889999 3.940002-5.210007 6.880005 -1.62999 0.399994-3.259995 0.830002-4.889999 1.259995 -0.799988-3.339996-1.209991-6.980003 0.350006-10.18z"/>
    <path id="svg_48" fill="#845335" d="m211.740005 120.769997c2.020004 3.93 3.839996 10.269997-1.059998 12.849998 -1.309998 0.800003-2.600006 1.639999-3.880005 2.470001 -1.490005-2.119995-3.009995-4.220001-4.550003-6.300003 4.040009-1.929993 7.180008-5.25 9.490005-9.019997z"/>
    <path id="svg_49" fill="#482816" d="m63.630001 128.710007c3.460003-2.25 7.579998-2.93 11.369999-4.379997 -1.449997 3.719994-3.339996 7.68-7.150002 9.469994 -4.159996 2.37001-10.249996 2.850006-12.169998 7.930008 -1.52 4.970001-0.759998 10.519989 1.400002 15.190002 2.91 5.919998 8.790001 9.409988 14.129997 12.859985 3.200005 2.180008 7.090004 3.860001 8.900002 7.5 -7.659996-3.959991-15.349998-8.049988-22.130001-13.429993 -3.809998-2.929993-7.009998-7.050003-7.439999-11.979996 -1.09-9.529999 4.990002-18.610001 13.09-23.160004z"/>
    <path id="svg_50" fill="#482816" d="m196.259995 129.820007c1.5 0.089996 3 0.149994 4.509995 0.210007 4.800003 6.209991 9.540009 12.919998 10.880005 20.839996 0.860001 3.519989-0.679993 6.949997-1.949997 10.169998 -1.259995 0.229996-2.520004 0.460007-3.779999 0.679993 2.429993-6.779999 1.839996-14.279999-0.76001-20.899994 -2-4.380005-6.519989-6.860001-8.899994-11z"/>
    <path id="svg_51" fill="#000000" d="m118.440002 141.330002c2.860001-1.929993 6.260002-2.789993 9.649994-3.160004 5.910004-0.179993 12.350006-0.009995 17.450012 3.380005 -4.770004-1.199997-9.520004-2.809998-14.5-2.619995 -4.350006-0.190002-8.440002 1.419998-12.600006 2.399994z"/>
    <path id="svg_52" fill="#000000" d="m187.610001 138.360001c4.270004 1.930008 8.660004 3.779999 12.479996 6.509995 2.790009 1.960007 4.5 5.220001 4.389999 8.639999 -0.970001-2.049988-1.639999-4.279999-2.98999-6.12999 -1.950012-2.330002-4.75-3.699997-7.430008-5 -2.229996-1.199997-4.929993-1.839996-6.449997-4.020004z"/>
    <path id="svg_53" fill="#845335" d="m150.720001 140.589996c4.740005-0.720001 10.630005-2.360001 14.410004 1.610001 -1.570007 1.679993-2.960007 3.589996-4.860001 4.919998 -2.389999 1.270004-5.139999 1.509995-7.740005 2.050003 -0.199997-2.930008-0.98999-5.770004-1.809998-8.580002z"/>
    <path id="svg_54" fill="#482816" d="m130.380005 143.479996c3.139999-0.160004 6.649994-0.059998 9.360001 1.699997 0.059998 0.430008 0.169998 1.290009 0.220001 1.720001 -4.869995 2.130005-11.889999 2.949997-15.990005-1.020004 1.560005-1.860001 4.180008-2.049988 6.410004-2.399994z"/>
    <path id="svg_55" fill="#482816" d="m160.270004 147.119995c1.899994-1.330002 3.289993-3.240005 4.860001-4.919998 0.690002 3.639999-2.339996 5.949997-4.479996 8.339996 -2.770004 2.059998-6.020004 3.589996-9.550003 2.740005 0.520004-1.360001 1.020004-2.720001 1.429993-4.110001 2.600006-0.540009 5.350006-0.779999 7.740005-2.050003z"/>
    <path id="svg_56" fill="#482816" d="m194.059998 142.380005c2.680008 1.300003 5.479996 2.669998 7.429993 5 1.350006 1.850006 2.020004 4.080002 2.990005 6.130005 -0.910004 1.869995-1.850006 3.729996-2.839996 5.559998 -1.210007-3.550003-2.220001-7.240005-4.309998-10.400009 -1.309998-1.979996-2.630005-3.979996-3.270004-6.289993z"/>
    <path id="svg_57" fill="#000000" d="m64.919998 152.080002c2.169998-5.550003 8.580002-7.699997 14.110001-7.429993 3.639999 0.23999 7.720001 0.699997 10.419998 3.409988 -5.159996-1.98999-10.849998-3.5-16.330002-1.809998 -3.449997 0.759995-5.639999 3.669998-8.199997 5.830002z"/>
    <path id="svg_58" fill="#000000" d="m78.970001 147.539993c2.07 2.690002 3.809998 5.759995 6.900002 7.449997 8.800003 5.639999 18.659996 9.360001 28.510002 12.710007 7.329994 2.269989 14.819992 4.809998 22.610001 4.339996 13.099991-0.529999 26.050003-3.759995 38.080002-8.940002 7.520004-3.459991 15.319992-7.860001 19.429993-15.37999l0.860001 0.289993c-4.369995 7.940002-12.599991 12.630005-20.610001 16.209991 -10.73999 4.410004-22.089996 7.440002-33.669998 8.450012 -5.039993 0.399994-10.159988 0.399994-15.089996-0.810013 -10-2.349991-19.699997-5.869995-29.120003-9.939987 -5.220001-2.490005-10.549995-5.01001-14.900002-8.889999 -1.649994-1.389999-2.489998-3.450012-3-5.490005z"/>
    <path id="svg_59" fill="#000000" d="m112.279999 152.679993c4.110001 2.419998 8.93 5.419998 13.840004 3.990005 0.009995 0.470001 0.039993 1.409988 0.049995 1.87999 -4.830002-1-10.970001-1.209991-13.889999-5.869995z"/>
    <path id="svg_60" fill="#916a52" d="m96.870003 161.919998c9.419998 4.070007 19.120003 7.589996 29.120003 9.940002 4.929993 1.209991 10.050003 1.209991 15.089996 0.809998 11.580002-1.009995 22.930008-4.039993 33.669998-8.449997 0.240005 0.349991 0.710007 1.059998 0.949997 1.410004 -3.62999 3.860001-8.639999 6.099991-13.659988 7.529999 -9.460007 2.549988-19.300003 3.37999-29.060013 3.5 -10.98999-0.430008-22.439995-2.529999-31.549995-9.070007 -2.059998-1.389999-3.659996-3.349991-4.559998-5.669998z"/>
    <path id="svg_61" fill="#845335" d="m194.389999 167.479996c4.929993-4.039993 11.430008-4.860001 17.559998-5.330002 1.949997 13.009995-6.759995 24.199997-7.929993 36.839996 -0.430008 6.700012-1.550003 13.330002-1.980011 20.01001 2.310013 3.589996 6.320007 5.970001 7.790009 10.12999 1.819992 3.960007 0.819992 8.390015-0.37001 12.37001 1.940002 0.860001 4.790009 1.169998 5.280014 3.679993 1.599991 7.490005-3.590012 14.450012-9.660004 18.230011 2.899994 0.440002 6.87999 0.269989 8.029999 3.669983 2 5.559998-1.070007 11.420013-4.940002 15.360016l0.460007 0.829987c3.189987 5.26001-0.62001 12.070007-5.560013 14.649994 -6.539993 0.490021-13.569992 3.370026-19.73999-0.209991 -2.660004-1.799988 0.770004-3.609985 1.919998-5.169983l0-1.480011c4.369995-0.790009 8.949997-1.459991 12.759995-3.890015 -9.409988 2.130005-19.289993 5.76001-28.959991 3.490021l-0.51001-0.470001c-5.469986-4.640015-13.949997-5.170013-18.099991-11.540009 -1.130005-2.059998-1.240005-6.040009 1.550003-6.720001 4.360001 0.059998 8.679993 0.920013 13.049988 0.580017 8.690002 0.939972 17.410004-0.180023 26.030014-1.330017 2.849991-0.600006 5.979996-0.559998 8.48999-2.200012 -6.959991 0.75-13.869995 2.660004-20.910004 2.340027 -9.449997-2.420013-20.23999-2.320007-28.059998-8.960022 -3.679993-2.929993-4.889999-9.509995-0.839996-12.609985 5.330002-2.050003 10.860001 0.919998 16.240005 1.319992 4.019989 0.630005 7.959991-0.62999 11.559998-2.330002 5.599991-1.580002 12.069992-0.449997 17.160004-3.509995 -6.840012 1-13.770004 2.690002-20.690002 2.229996 -4.919998-1.819992-10.169998-2.169998-15.300003-3.039993 -3.139999-0.520004-6.869995-2-7.520004-5.51001 -0.860001-4.599991 1.37001-8.98999 2.990005-13.159988 9.410004-4.290009 19.910004-5.529999 30.160004-5.660004 4.110001-0.210007 8.619995-0.460007 11.909988-3.240005l-0.769989-0.619995c-6.590012-4.220001-8.860001-13.300003-6.460007-20.490005 0.759995 0.060013 2.279999 0.169998 3.040009 0.220001 -1.580002-1.080002-3.700012-1.679993-4.550003-3.539993 -2.490005-8.650009-0.389999-19.139999 6.869995-24.940002z"/>
    <path id="svg_62" fill="#482816" d="m211.949997 162.149994c1 1.410004 2.070007 2.949997 1.960007 4.779999 -0.430008 9.899994-4.630005 19.169998-5.380005 29.029999 -1.059998 6.990005-3.369995 13.919998-2.710007 21.080002 4.76001 2.490005 9.51001 6.380005 10.389999 12.009995 1.020004 3.830002-0.509995 7.670013-2.220001 11.050003 6.580002 5.449997 7.450012 17.12001 0.190002 22.37001 3.12001 2.929993 3.650009 7.609985 2.020004 11.449982 -1.220001 3.990021-4.199997 7.050018-7.570007 9.350006l-0.459991-0.829987c3.869995-3.940002 6.940002-9.800018 4.940002-15.360016 -1.150009-3.399994-5.130005-3.22998-8.029999-3.669983 6.069992-3.779999 11.259995-10.740005 9.659988-18.230011 -0.48999-2.509995-3.339996-2.819992-5.279999-3.679993 1.190002-3.979996 2.190002-8.410004 0.37001-12.37001 -1.470001-4.159988-5.480011-6.539993-7.790009-10.12999 0.430008-6.680008 1.550003-13.309998 1.980011-20.01001 1.169998-12.639999 9.87999-23.829987 7.929993-36.839996z"/>
    <path id="svg_63" fill="#f3f6ff" d="m28.02 185.110001c12.119999-6.589996 25.389999-11.199997 39.060001-13.149994 3.709999 1.62999 7.090004 3.929993 10.68 5.819992 -1.029999 0.960007-2.059998 2.130005-3.620003 1.970001 -11.439995 0.570007-23.039997 0.380005-34.269997 2.979996 -3.650002 0.960007-7.610001 1.940002-10.240002 4.850006 -2.259998 2.509995-4.679998 4.869995-7.519999 6.729996 0.09 0.809998 0.18 1.630005 0.269999 2.460007 -4.669998 5.580002-5.269999 13.279999-4.439999 20.229996 0.48 4.110001 2.6 7.869995 2.799999 12.020004 -0.299999 3.470001-1.440001 6.809998-1.85 10.279999 -5.99-3.25-7.919999-10.900009-7.929999-17.270004 0.11-9.699997 2.2-19.589996 6.820001-28.169998 2.099998-4.190002 6.33-6.520004 10.24-8.75l-0.000002 0z"/>
    <path id="svg_64" fill="#482816" d="m167.199997 188.179993c7.949997-3.809998 12.470001-12.419998 20.979996-15.330002 -0.429993 1.369995-0.889999 2.720001-1.300003 4.080002 -2.759995 1.779999-6.019989 3.059998-8.019989 5.779999 -3.669998 4.990005-7.770004 9.699997-12.630005 13.570007 -4.699997 4.019989-11.059998 4.899994-16.869995 6.299988 -10.650009 2.070007-21.510002 3.560013-32.380005 3.25 -4.450005-0.469986-9.529999-0.5-12.990005-3.779999 -3.959999-3.769989-7.099998-8.279999-10.389999-12.619995 4.520004 1.860001 7.389999 6.080002 11.650002 8.360001 7.120003 4.300003 15.770004 4.860001 23.860008 3.940002 13.519989-1.690002 25.949997-7.710007 38.089996-13.550003z"/>
    <path id="svg_65" fill="#ffe1bc" d="m81.150002 177.770004l0.120003-0.119995 0.079994 0.080002 -0.199997 0.039993z"/>
    <path id="svg_66" fill="#cce4ff" d="m77.760002 177.779999c3.239998 1.529999 5.730003 4.139999 8.270004 6.610001 -2.640007 10.479996-4.710007 21.080002-6.780006 31.690002 -2.43-3.710007-3.279999-8.089996-3.900002-12.400009 -3.179993 5.470001-2.789993 13.340012-8.75 16.860001 -4.659996 2.340012-10.069996 3.650009-15.279995 3.040009 -6.790001-2.020004-9.800003-9.070007-13.720001-14.320007 -1.459999-3.419998 0.75-7.839996-2.23-10.599991 0.860001 7.229996 0.610001 14.789993 4.200001 21.399994 -2.620003-0.639999-5.25-1.259995-7.810001-2.099991 -0.84-0.75-1.610001-1.550003-2.460001-2.280014 2.42 6.720001 9.51 10.01001 15.26 13.450012 -3.099998 3.539993-7.619999 5.039993-12.209999 5.279999 -0.260002 0.029999-0.77 0.099991-1.030001 0.139999 0.200001 0.339996 0.610001 1.029999 0.809999 1.37999 1.940002 0.790009 4 1.060013 6.080002 0.900009 -0.93 0.660004-1.84 1.360001-2.740002 2.059998 -4.959999 3.25-11.289999 2.410004-16.620001 0.660004l0.040001-0.25c0.41-3.470001 1.549999-6.809998 1.85-10.279999 -0.200001-4.150009-2.320002-7.910004-2.800001-12.020004 -0.83-6.949997-0.23-14.649994 4.440001-20.229996 -0.089998-0.830002-0.179998-1.650009-0.269999-2.460007 2.839998-1.860001 5.26-4.220001 7.519999-6.729996 2.630001-2.910004 6.59-3.889999 10.240002-4.850006 11.23-2.599991 22.829998-2.409988 34.269997-2.979996 1.560005 0.160004 2.590004-1.009995 3.620003-1.970001z"/>
    <path id="svg_67" fill="#00469b" d="m181.929993 182.240005c0.330002-1.509995 2.430008-2.850006 3.930008-2.710007 0.269989 1.800003-2.390015 2.990005-3.930008 2.710007z"/>
    <path id="svg_68" fill="#000000" d="m120.900002 182.660004c10.530006-2.229996 21.329994-2.929993 32.079994-2.380005l-0.049988 0.669998c-13.12001-0.089996-26.750008 0.050003-39.080009 5.070007 1.860001-1.960007 4.5-2.75 7.050003-3.360001z"/>
    <path id="svg_69" fill="#0060b6" d="m181.929993 182.240005c-0.360001 3.350006-3.059998-1.210007 0 0z"/>
    <path id="svg_70" fill="#cce4ff" d="m177.789993 187.839996c2-2.529999 4.75-4.270004 7.520004-5.820007 -0.020004 2.900009 0.190002 5.810013 0.699997 8.670013 -6.449997 7.659988-8.419998 18.699997-5.949997 28.279999 -3.360001 0.209991-6.669998 0.779999-10.01001 1.149994 -1.839996-11.160004 0.360001-23.459991 7.740005-32.279999z"/>
    <path id="svg_71" fill="#f3f6fe" d="m212.190002 182.759995c6.039993 5.070007 8.630005 12.860001 10.740005 20.190002 1.149994 7.089996 1.919998 14.229996 2.639999 21.369995 -1.110001-0.800003-2.220001-1.610001-3.320007-2.410004l0-0.069992c0.630005-5.199997-1.899994-9.940002-3.479996-14.720001 -2.119995-6.160004-3.580002-12.850006-8.180008-17.740005 0.440002-2.229996 0.970001-4.439987 1.600006-6.619995z"/>
    <path id="svg_72" fill="#014696" d="m86.669998 184.940002c2.159996 1.770004 4.220001 3.660004 6.099998 5.729996 -0.659996 0.089996-1.989998 0.270004-2.650002 0.37001 -3.479996 13.199997-5.149994 26.819992-9.110001 39.909988 -1.289993 4.940002-1.329994 10.110001-2.759995 15.029999 -1.970001-1-3.920006-2.049988-5.849998-3.12999 -0.010002-2.449997-0.080002-4.889999-0.140007-7.340012 5.490005-3.519989 6.010002-10.679993 7.530006-16.439987 2.029999-11.430008 4.719994-22.740005 6.879997-34.130005z"/>
    <path id="svg_73" fill="#482816" d="m129.330002 187.509995c5.029999-1.630005 10.509995-1.699997 15.619995-0.350006 -0.23999 2.270004-0.599991 4.830002-2.759995 6.12001 -4.470001 3.069992-12.110001 4.309998-15.480003-0.970001 -1.68-1.940002 0.850006-4.150009 2.620003-4.800003z"/>
    <path id="svg_74" fill="#cce4ff" d="m210.589996 189.380005c4.600006 4.889999 6.059998 11.580002 8.180008 17.740005 1.579987 4.779999 4.109985 9.519989 3.479996 14.720001 -3.110001-1.26001-6-3.610001-9.440002-3.670013l0.059998-0.279999 0.110001-0.519989 -0.580002 0.019989c-1.899994-0.459991-3.759995-1.009995-5.639999-1.519989 0.029999-5.029999 0.680008-10.029999 2-14.880005 1.080002-3.789993 0.910004-7.789993 1.830002-11.610001z"/>
    <path id="svg_75" fill="#0060b6" d="m90.120003 191.039993c0.660004-0.100006 1.989998-0.279999 2.650002-0.369995 2.119995 2.799988 4.580002 5.369995 6.369995 8.409988 -0.07 6.590012-1.849998 13.5 0.910004 19.810013 10.690002 3.059998 21.809998 4.619995 32.929993 4.73999 6.890015-0.380005 14.210007-0.809998 20.310013-4.349991 1.839996-2.889999 1.759995-6.580002 2.269989-9.900009 2.100006-1.069992 4.190002-2.149994 6.279999-3.25 -0.98999 5.350006-1.689987 10.75-1.73999 16.190002 -5.919998 2.050003-12.5 4.380005-15.559998 10.330002 -11.029999-2.880005-22.360008-4.529999-33.610008-6.330002 -4.330002-0.610001-8.68-1.309998-13.07-1.300003 -0.349998 0.309998-1.040001 0.910004-1.389999 1.220001 -1.699997 0.290009-3.470001 0.380005-5.089996 1.040009 -4.459999 2.549988-5.200005 8.159988-8.020004 12.080002 -1.940002 2.48999-2.169998 5.579987-1.330002 8.529999 -1.259995-0.639999-2.509995-1.279999-3.779999-1.910004 1.43-4.919998 1.470001-10.089996 2.760002-15.029999 3.959999-13.089996 5.629997-26.710007 9.110001-39.910004z"/>
    <path id="svg_76" fill="#014697" d="m156.539993 202.149994c7.220001-1.300003 12.470001-6.520004 17.509995-11.399994 -4.689987 8.929993-7.339996 19.37999-5.149994 29.419998 -2.930008 0.75-5.860001 1.459991-8.800003 2.149994 0.050003-5.440002 0.75-10.839996 1.740005-16.190002 -2.089996 1.100006-4.180008 2.180008-6.279999 3.25 -0.070007-2.449997 0.119995-4.919998 0.979996-7.229996z"/>
    <path id="svg_77" fill="#845335" d="m181.089996 219.330002c-2.190002-9.179993-0.919998-19.860001 5.279999-27.259995 0.790009 1.220001 1.699997 2.339996 2.75 3.360001l-0.089996 0.309998c-2.400009 7.190002-0.130005 16.269989 6.459991 20.48999 -3.949997 3.37001-9.559998 2.810013-14.399994 3.100006z"/>
    <path id="svg_78" fill="#cce4ff" d="m101.019997 217.960007c-1.839996-5.630005-1.029999-11.729996-0.480003-17.509995 1.860001 1.87999 3.790001 3.75 6.150002 5.009995l0.160004 0.220001c1.790001 2.339996 3.459999 4.910004 5.949997 6.589996 2.720001 1.75 6.080002 1.790009 9.199997 1.940002 10.860008 0.240005 21.739998-1.330002 32.159996-4.360001 -0.819992 3.419998 0.030014 8.970001-4.459991 9.880005 -15.790009 5.169998-32.959999 2.330002-48.68-1.770004z"/>
    <path id="svg_79" fill="#8db4eb" d="m106.849998 205.679993c16.110001 3.259995 32.689995 0.229996 48.540001-3.139999 -0.539993 2.410004-0.970001 4.850006-1.229996 7.309998 -10.419998 3.029999-21.300003 4.600006-32.160004 4.360001 -3.120003-0.149994-6.480003-0.190002-9.199997-1.940002 -2.490005-1.679993-4.160004-4.25-5.950005-6.589996z"/>
    <path id="svg_80" fill="#8db4eb" d="m66.599998 220.539993c5.959999-3.520004 5.57-11.389999 8.75-16.860001 0.620003 4.309998 1.470001 8.690002 3.900002 12.399994 -1.25 6.020004-2.020004 12.600006-6.010002 17.550003 -2.860001-1.419998-7.199997-0.830002-8.470001-4.389999 2.510002-0.25 5.059998-0.229996 7.529999-0.830002 -7.439995-2.259995-14.889996 2.419998-22.279999 0.490005 -7.119999-3.850006-11.959999-11.559998-12.419998-19.639999 3.919998 5.25 6.93 12.300003 13.720001 14.319992 5.209999 0.610001 10.619999-0.699997 15.279999-3.039993z"/>
    <path id="svg_81" fill="#f3f6fe" d="m212.399994 217.389999l0.580002-0.020004 -0.110001 0.520004c-0.059998 0.279999-0.190002 0.839996-0.25 1.119995 4.360001 1 8.440002 3.199997 11.940002 5.960007 0.360001-0.130005 1.069992-0.400009 1.429993-0.529999l0.01001 1.23999c5.449997 1.090012 7.399994 6.790009 8.889999 11.430008 1.860001 5.809998 3.830002 11.839996 3.009995 18.020004 -0.850006 4.22998-3.440002 7.829987-4.600006 11.959991 -0.860001 3.089996-1.579987 6.230011-2.929993 9.160004l-0.259995-1.100006c0.479996-8.440002 3.73999-16.600006 2.929993-25.169998 0.039993-10.319992-6.479996-20.62999-16.389999-24l-0.139999-0.059998c-1.669998-2.919998-3.529999-6.020004-6.779999-7.389999 0.889999-0.380005 1.779999-0.759995 2.669998-1.139999z"/>
    <path id="svg_82" fill="#94bdf2" d="m31.76 217.960007c2.559999 0.839996 5.190001 1.460007 7.809999 2.100006l0.170002 0.039993c1.899998 3.570007 5.079998 6.139999 7.849998 8.990005 -5.920002-2.560013-11.970001-5.779999-15.83-11.130005z"/>
    <path id="svg_83" fill="#014697" d="m97.860001 225.020004c4.389999-0.009995 8.739998 0.690002 13.07 1.300003 11.25 1.800003 22.579994 3.449997 33.610008 6.330002l0.569992 1.399994c-2.160004 0.169998-4.330002 0.309998-6.490005 0.100006 -8.729996-2.660004-19.029999 1.98999-26.859993-3.970001 -0.940002 2.649994-3.989998 2.279999-6.25 2.539993 -2.910004-0.259995-5.830002-1.220001-7.889999-3.389999 0-1.440002 0.080002-2.880005 0.239998-4.309998z"/>
    <path id="svg_84" fill="#482816" d="m146.009995 232.899994c1-3.820007 4.889999-5.669998 8.180008-7.149994 -1.62001 4.169998-3.850006 8.559998-2.990005 13.159988 0.649994 3.51001 4.380005 4.990005 7.520004 5.51001 5.12999 0.869995 10.37999 1.220001 15.299988 3.039993l0.700012 0.220001c-4.529999 0.5-9.190002 0.830002-13.670013-0.199997 -4.319992-1.25-8.889999-1.570007-13.019989-3.470001 -1.130005-3.600006-2.180008-7.309998-2.020004-11.110001z"/>
    <path id="svg_85" fill="#cce4ff" d="m216.649994 225.979996c9.910004 3.369995 16.429993 13.679993 16.389999 24 0.809998 8.569992-2.449997 16.729996-2.929993 25.169998 -0.020004 0.420013-0.060013 1.26001-0.080002 1.670013 -4.380005 6.579987-11.75 10.279999-19.12001 12.449982 -0.019989-2-0.220001-4-0.75-5.929993 5.639999-4.070007 11.400009-8.390015 14.520004-14.809998 5.699997-9.830017 3.770004-22.240005-1.490005-31.809998 -1.819992-3.900009-6.779999-5.919998-6.539993-10.740005z"/>
    <path id="svg_86" fill="#b2b2b2" d="m92.470001 230.520004c0.449997-1.770004 2.349998-2.229996 3.790001-2.899994 -0.559998 4.360001-2.220001 8.519989-2.690002 12.889999 1.190002 2.779999 4.400002 4.119995 6.660004 6 2.720001-0.660004 5.779999-0.529999 8.220001-2 1.759995-4.080002 2.129997-8.600006 3.429993-12.830002 0.520004 0.550003 1.570007 1.660004 2.090004 2.220001 -0.080002 5.360001-0.220001 10.720001 0.099998 16.080002 -4.610001 3.119995-10.529999 4.25-16 3.939987 -4.790001-2.469986-9.639999-5.73999-11.959999-10.799988 2.389999-4.060013 4.800003-8.130005 6.360001-12.600006z"/>
    <path id="svg_87" fill="#92bbef" d="m44.560001 229.130005c2.009998 0.470001 4.040001 0.820007 6.079998 1.139999 -4.489998 2.009995-8.84 4.589996-13.759998 5.419998 -1.689999 0.570007-3.130001-0.5-4.529999-1.279999 4.59-0.240005 9.110001-1.740005 12.209999-5.279999z"/>
    <path id="svg_88" fill="#838383" d="m85.860001 236.979996c1.980003-3.440002 2.900002-7.929993 7.080002-9.470001 -2.550003 5.240005-4.849998 10.610001-7.959999 15.559998 2.549995 5.520004 7.719994 9.520004 13.149994 11.960007 4.340004 0.360001 8.68-0.740005 12.780006-2.070007 1.639999-0.759995 4.299995-1.539993 4.059998-3.819992 0.150002-5.139999-0.309998-10.290009 0.229996-15.419998 2.860001 5.819992 1.770004 12.599991 1.670006 18.839996 -3.959999 5.589996-11.580002 6.329987-17.889999 6.519989 -3.310005 0.369995-5.880005-2.059998-8.470001-3.699997 -3.82-2.709991-7.889999-6.339996-8.029999-11.389999 0.599998-2.559998 2.18-4.720001 3.379997-7.009995z"/>
    <path id="svg_89" fill="#0060b6" d="m97.150002 228.919998l0.470001 0.410004c2.059998 2.169998 4.979996 3.12999 7.889999 3.389999 1.610001 0.169998 3.220001 0.300003 4.839996 0.399994 -0.719994 3.639999-1.659996 7.240005-2.529999 10.850006 -2.559998 0.569992-5.169998 1.369995-7.82 1.110001 -1.900002-1.360001-4.32-2.600006-5.330002-4.76001 0.480003-3.869995 1.720001-7.589996 2.480003-11.399994z"/>
    <path id="svg_90" fill="#ffffff" d="m58.68 230.899994c1.59-0.320007 3.18-0.639999 4.77-0.940002 0.419998 3.199997 3.59 4.25 6.380001 4.350006 0.389999 2.349991 0.769997 4.699997 1.159996 7.050003 -0.829994-0.12001-2.5-0.380005-3.329994-0.5 -0.210007 2.969986-0.600006 5.939987-1.440002 8.809998 -0.510002-0.470001-1.529999-1.419998-2.050003-1.889999 4.200005-6.040009-1.269997-12.650009-5.489998-16.880005z"/>
    <path id="svg_91" fill="#8db4eb" d="m50.650002 231.020004c1.82 0.110001 4.029999-0.550003 5.420002 0.990005 3.66 3.610001 8.039997 8.039993 7.059998 13.679993 -4.309998 4.540009-9.84 7.75-15.599998 10.110001 2.09-2.410004 4.599998-4.639999 5.799999-7.649994 0.849998-2.230011-0.360001-4.919998-2.600002-5.770004 -9.319996-3.380005-19.309998 5.360001-28.249998-0.309998 4.32-0.330002 10.530001 1.580002 12.99-3.180008 0.900002-0.699997 1.810001-1.399994 2.740002-2.059998 4.169998-1.839996 8.699997-3.069992 12.439999-5.809998z"/>
    <path id="svg_92" fill="#000000" d="m167.800003 242.520004c-1.949997-3.570007-2.410004-9.119995 0.929993-12.020004 -1.939987 3.790009-1.399994 7.960007-0.929993 12.020004z"/>
    <path id="svg_93" fill="#845335" d="m217.880005 231.660004c7.070007 7.029999 9.919998 17.619995 8.990005 27.380005 -1.310013 6.73999-4.650009 13.410004-10.139999 17.699982 1.329987-4.679993 2.309998-9.98999-0.800003-14.199982 6.449997-6.01001 5.470001-16.910004-0.62001-22.820007 1.400009-2.48999 2.12001-5.259995 2.570007-8.059998z"/>
    <path id="svg_94" fill="#fbfeff" d="m10.37 248.520004c-2.4-4.860001-0.92-10.830002 2.41-14.869995 0.42 0.98999 0.820001 1.979996 1.22 2.979996 -3.3 6.490005-1.57 14.850006 3.42 19.970001 3.360001 3.559998 8.59 3.639984 13.1 4.269989 -4.18 0.160004-8.810001 1.529999-12.67-0.699982 -3.92-2.76001-5.41-7.560013-7.48-11.650009z"/>
    <path id="svg_95" fill="#0060b6" d="m116.419998 233.350006c7.349998 1.229996 14.809998 0.289993 22.199997 0.800003 2.160004 0.209991 4.330002 0.069992 6.490005-0.100006 -0.119995 3.440002 0.800003 6.76001 1.899994 9.979996 -3.339996 3.340012-4.769989 7.930008-4.429993 12.600006 -6.570007 0.290009-13.139999 0.179993-19.709999 0.119995l-0.220001-0.199982c-0.720001-0.650009-1.590004-1.01001-2.620003-1.060013 0.770004-5.860001 1.029999-11.770004 1.340004-17.669998 0.159996-1.350006-0.230003-2.649994-1.010002-3.740005 -0.300003 7.380005-1.139999 14.740005-1.400002 22.12001 -0.879997-0.040009-2.650002-0.130005-3.529999-0.179993 1.059998-1.52002 2.809998-2.910019 2.659996-4.960007 -0.259995-5.910004 0.68-12.090012-1.669998-17.710007z"/>
    <path id="svg_96" fill="#021d67" d="m120.360001 234.080002c0.779999 1.089996 1.169998 2.389999 1.010002 3.740005 -0.310005 5.899994-0.57 11.809998-1.340004 17.669998 1.029999 0.050003 1.900002 0.410004 2.620003 1.059982 -0.040001 0.200012-0.139999 0.590027-0.18 0.790009 -0.889999 0.100006-2.650002 0.320007-3.540001 0.429993 0.010002-0.389984 0.019997-1.179993 0.029999-1.569977 0.260002-7.380005 1.099998-14.740005 1.400002-22.12001z"/>
    <path id="svg_97" fill="#cce4ff" d="m14 236.630005c2.200001 2.699997 5.290001 4.220001 8.48 5.440002 8.939999 5.669998 18.93-3.070007 28.25 0.309998 2.240002 0.850006 3.450001 3.539993 2.599998 5.770004 -1.200001 3.009995-3.709999 5.23999-5.799999 7.649994 -4.889999 3.62999-11.130001 4.37001-17.01 5.069992 -4.51-0.630005-9.74-0.709991-13.1-4.269989 -4.989999-5.119995-6.719999-13.479996-3.419999-19.970001l0.000001 0z"/>
    <path id="svg_98" fill="#482816" d="m143.770004 255.960007c-0.610001-4.199997 1.110001-8.320007 4.029999-11.289993 3.740005 2.059998 8.070007 2.189987 12.089996 3.369995 5.76001 1.630005 11.779999 0.490005 17.660004 0.699997 -3.599991 1.699997-7.539993 2.960007-11.559998 2.330002 -5.380005-0.399994-10.910004-3.369995-16.240005-1.320007 -4.050003 3.100006-2.839996 9.679993 0.840012 12.610016 7.819992 6.639984 18.610001 6.539978 28.059998 8.959991 -9.680008 2.649994-19.419998-1.459991-27.730011-6.149994 -3.399994-2.01001-7.009995-4.920013-7.149994-9.210007z"/>
    <path id="svg_99" fill="#845335" d="m61.740002 248.740005c1.52 1.130005 2.84 2.490005 4.09 3.919998 -1.129997 1.680008-2.349998 3.300003-3.650002 4.860016 0.360001 0.349976 1.070004 1.069977 1.43 1.419983 -0.939999 2.929993-2.41 5.860016-5.139999 7.48999 -2.849998 1.779999-2.77 5.559998-3.759998 8.430023 -2.510002 8.709991-3.049999 17.819977-2.630001 26.829987 -5.419998-0.209991-11.169998 2.130005-16.280003-0.48999 -2.639999-1.420013-2.579998-4.709991-3.209999-7.240021 3.93-2.199982 6.060001-6.579987 10.040001-8.569977l0.580002-0.070007c-2.300003-2.309998-4.540001-4.850006-5.490002-8.029999 -1.779999-5.320007-0.75-10.980011 0.25-16.339996 2.630001-0.559998 5.27-1.25 7.650002-2.559998 5.529999-2.930008 11.399998-5.450012 16.119999-9.650009z"/>
    <path id="svg_100" fill="#d49758" d="m68.629997 257.619995c4.779999-3.139999 10.82-3.130005 16.339996-3.300003 2.230003-0.229996 4.020004 1.070007 5.660004 2.389999 -0.699997 2.779999-1.349998 5.580017-1.82 8.410004l-0.279999-0.100006c-7.220001-2.48999-15.360001-4.359985-22.870003-2.179993 -0.400002 0.220001-1.18 0.670013-1.57 0.889984 5.959999 6.530029 15.520004 3.400024 23.230003 4.800018 0.029999 1.48999 0.019997 2.980011 0 4.480011 -0.310005 2.809998-1.820007 5.299988-2.310005 8.069977 -3.239998-2.449982-6.449997-4.929993-9.43-7.690002 -2.439995-2.549988-6.089996-2.970001-9.220001-4.199982 -3.57 2.100006-7.079998 4.320007-10.359997 6.859985 2.939999-6.859985 6.689999-13.709991 12.630001-18.429993z"/>
    <path id="svg_101" fill="#652900" d="m165.039993 256.339996c1.860001 2.839996 1.300003 6.519989 2.399994 9.670013 -0.329987 0-0.979996 0.009979-1.309998 0.019989 -0.720001-3.179993-1.319992-6.420013-1.089996-9.690002z"/>
    <path id="svg_102" fill="#b2b2b2" d="m91.260002 257.359985c3.400002 2.529999 7.470001 3.290009 11.620003 2.559998 0.169998 0.390015 0.509995 1.160004 0.68 1.549988l-0.030006 0.070007 -0.029999 0.080017 -1.900002-0.130005 0.740005 2.579987c-0.419998 0.050018-1.279999 0.130005-1.709999 0.170013l0.699997-3.610016c-1.159996 1.77002-2.559998 3.950012-2.129997 6.160004 0.269997-0.410004 0.82-1.23999 1.089996-1.649994 0.349998 0.320007 0.700005 0.649994 1.040001 0.98999 -0.610001 1.330017-1.18 2.670013-1.720001 4.029999 -0.199997-0.279999-0.599998-0.829987-0.799995-1.109985l-0.470001 0.179993 -0.480003 0.529999c-2.449997 0.410004-4.75-0.75-7.080002-1.279999l0.780006-2.179993c-0.889999 0.570007-1.770004 1.169983-2.639999 1.790009 0.879997-2.440002 1.07-5.070007 2.139999-7.440002 0.049995 2.039978-0.470001 4.299988 0.779999 6.119995 0.150002-2.23999 0.379997-4.440002 0.839996-6.630005 -0.459999 0.110016-1.369995 0.339996-1.830002 0.450012 0.100006-0.809998 0.300003-2.420013 0.410004-3.230011z"/>
    <path id="svg_103" fill="#bb743c" d="m104.760002 259.600006c5.330002-1.459991 10.82 1.950012 14.440002 5.649994 -7.400002 5.990021-7.470001 16.240021-9.290001 24.800018 -1.760002 7.47998-2.459999 15.609985-6.760002 22.159973 -3.839996 2.630005-8.919998 1.77002-13.32 1.620026 -8.620003-1.090027-17.260002-2.390015-25.639999-4.730011 1.309998-1.399994 2.629997-2.790009 3.919998-4.200012 1.029999-0.129974 2.060005-0.259979 3.099998-0.379974 2.010002 0.889984 4.040001 1.779999 6.060005 2.669983 0.029999 0.429993 0.099998 1.299988 0.139999 1.730011 6.93-0.059998 13.75 1.419983 20.639999 2.069977 3.299995 0.220001 5.089996-3.199982 5.659996-5.97998 0.75-5.01001 0.460007-10.130005-0.349998-15.110016 -0.889999-5.319977 0.82-10.589996 2.130005-15.690002 -1.150002-0.069977-2.290001-0.129974-3.43-0.189972l-0.040001 1.029999 -0.450005-0.27002c-3.720001-2.949982-8.629997-1.709991-12.959999-1.399994 0.150002-1.350006 0.270004-2.700012 0.349998-4.049988 -0.579994 1.209991-1.110001 2.440002-1.639999 3.679993 0.020004-1.5 0.029999-2.98999 0-4.480011 6.110001 1.740021 12.630005 4.160004 18.93 1.790009 2.810005-0.940002 3.980003-3.779999 4.950005-6.320007 -0.450005 0.380005-1.330002 1.140015-1.779999 1.52002 -1.540001-1.990021-3.050003-3.990021-4.660004-5.920013z"/>
    <path id="svg_104" fill="#d49657" d="m103.559998 261.470001c0.300003-0.470001 0.900002-1.399994 1.199997-1.869995 1.610001 1.929993 3.120003 3.929993 4.660004 5.919983 -1.450005 3.450012-5.120003 4.660004-8.610001 4.640015 0.949997-2.830017 1.830002-5.679993 2.690002-8.540009l0.029999-0.079987 0.029999-0.070007z"/>
    <path id="svg_105" fill="#482816" d="m33.189999 261.709991c1.59-0.290009 3.18-0.559998 4.779999-0.76001 -1 5.360016-2.029999 11.02002-0.25 16.339996 0.950001 3.180023 3.190002 5.720001 5.490002 8.029999l-0.580002 0.070007c-1.75-0.23999-3.039997 0.77002-4.139999 2 -4-2.059998-8.4-4.73999-9.509998-9.459991 -1.870001-5.799988 2.049999-11.119995 4.209999-16.220001z"/>
    <path id="svg_106" fill="#bb743c" d="m65.660004 262.839996c7.510002-2.179993 15.650002-0.309998 22.870003 2.179993 0.049995 0.649994 0.159996 1.950012 0.209999 2.589996 -6.75-1.369995-13.900002 0.570007-20.419998-1.949982 -1.43-0.320007-2.090004-1.619995-2.660004-2.820007z"/>
    <path id="svg_107" fill="#482816" d="m148.279999 264.660004c5.470001 3.220001 11.279999 5.790009 17.279999 7.839996l-0.520004 0.01001c-4.369995 0.339996-8.689987-0.52002-13.049988-0.580017 -2.790009 0.680023-2.680008 4.660004-1.550003 6.720001 4.149994 6.369995 12.62999 6.900024 18.099991 11.540009l-0.459991 0.110016c-4.690002-0.650024-9.089996-2.720001-13.110001-5.150024 -3.729996-2.72998-8.320007-5.399994-9.389999-10.279999 -1.150009-3.630005 0.889999-7.190002 2.699997-10.209991z"/>
    <path id="svg_108" fill="#020051" d="m119.57 266.26001c3.93-0.320007 8.07-0.850006 11.870003 0.51001 -3.920006 0.169983-8.130005 1.009979-11.870003-0.51001z"/>
    <path id="svg_109" fill="#00296f" d="m57.299999 269.209991c0.489998 0.540009 0.489998 0.540009 0 0z"/>
    <path id="svg_110" fill="#024697" d="m112.559998 281.160004c0.860001-4.600006 2.25-9.209991 5.159996-12.940002 9.100006 0.890015 18.280006 0.890015 27.390007 0.089996 -0.290009 0.929993-0.860001 2.800018-1.150009 3.730011 -7.360001 0.529999-14.73999 0.25-22.099998 0 -4.089996 5.839996-4.989998 13.019989-6.179993 19.859985 -1.620003 8.300018-2.970001 16.800018-6.770004 24.440002 6.160004 7.480011 13.040001 15.440002 22.790001 18.01001 11.009995 2.720001 22.449997 1.019989 33.540009-0.299988 -1.170013 0.75-2.320007 1.529999-3.540009 2.209991 -3.979996-0.420013-7.729996 1.309998-11.649994 1.559998 -3.37001 0.230011-6.75 0.209991-10.110001 0.579987 -4.51001 0.790009-8.839996-1.119995-13.07-2.399994 -3.920006-1.549988-8.25-2.809998-11.190002-6.01001 -2.019997-2.159973-4.32-4.039978-6.989998-5.319977 -0.410004-2.279999-0.900002-4.540009-1.389999-6.809998 -14.210007 2.359985-28.240005-2.240021-42.050003-4.839996 -1.159996-0.350006-2.32-0.690002-3.48-1.030029 1.060001 0.870026 2.119999 1.77002 3.23 2.590027 -2.259998 4.959991-5.09 9.859985-5.709999 15.369995 -0.610001 5.059998 1.73 9.73999 3.34 14.380005 1.880001 5.22998 1.460003 11.339996 5.210003 15.799988 -3.030006-1.059998-4.970001-3.640015-6.750004-6.149994 -3.16-4.26001-7.379997-7.890015-9.299999-12.950012 -1.34-5.329987 0.91-10.660004 2.66-15.619995 2.260002-5.389984 3.990002-11.369995 8.670002-15.230011 7.18 2.240021 14.659996 3.310028 22.07 4.490021 5.43 0.559998 11.07 1.359985 16.43-0.089996 2.989998-0.950012 4.049995-4.200012 5.089996-6.830017 2.870003-8.630005 4.209999-17.669983 5.849998-26.589996z"/>
    <path id="svg_111" fill="#666666" d="m53.779999 281.589996c1.91-5.399994 7.380001-7.890015 11.879997-10.75 5.389999 5.970001 12.32 10.170013 18.920006 14.640015 2.439995 1.169983 2.019997 4.179993 2.769997 6.359985 1.010002 4.459991 3.879997 8.130005 5.760002 12.209991 -1.290001 1.619995-2.959999 2.869995-4.560005 4.160004 -10.559998-10.049988-21.5-20.269989-34.769997-26.619995z"/>
    <path id="svg_112" fill="#838383" d="m67.489998 270.839996c2.32 0.73999 4.889999 1.220001 6.709999 2.970001 5 4.380005 10.349998 8.339996 15.57 12.440002 0.940002 6.299988 2.75 12.449982 5.940002 18 -4.489998-4.519989-7.800003-10.910004-7.590004-17.399994 -6.699997-5.559998-14.93-9.27002-20.629997-16.01001z"/>
    <path id="svg_113" fill="#0060b6" d="m121.860001 272.040009c7.360001 0.25 14.740005 0.529999 22.100006 0 0.360001 5.290009 3.860001 9.519989 8.149994 12.309998 -0.440002 2.049988-0.770004 4.320007 0.539993 6.149994 3.910004 5.920013 10.279999 9.490021 16.300003 12.910004l0.210007 0.529999c0.160004 3.619995-0.460007 7.740021 2.039993 10.77002 2.320007 2.649994 5.660004 4.149994 8.919998 5.289978 5.700012 1.950012 11.779999 0.720001 17.580002 0.050018 -6.979996 5.720001-16.119995 7.839996-22.869995 13.929993 2.669998-0.380005 5.349991-0.679993 8.009995-1.119995 4.830002 3.559998 3.75 9.859985 4.490005 15.070007 0.779999 6.109985 1.559998 12.209991 2.169998 18.329987 -4.180008 1.980011-8.580002 3.480011-13.139999 4.309998 5.399994 1.170013 10.949997 0.779999 16.419998 1.179993 3.479996 0.240021 4.270004 4.450012 4.229996 7.26001 0.300003 5.029999-2.229996 9.559998-5.019989 13.540009 -4.970001 0.799988-9.240005 3.470001-13.62001 5.709991 -10.419998 0.399994-21.069992 2.170013-31.339996-0.470001 -2.979996-0.839996-6.550003-2.100006-7.550003-5.380005 -1.459991-4.809998-0.319992-9.910004 1.610001-14.410004 3.389999-0.059998 6.779999-0.23999 10.169998-0.190002 5.610001 1.650024 11.37001 3.680023 17.300003 2.700012 6.940002-1.179993 15.580002-1.25 20.100006-7.540009 -4.400009 2.51001-9.169998 4.339996-14.180008 5.160004 -6.289993-1.230011-12.419998-3.139984-18.539993-5.01001 -3-1-6.310013-2.159973-8.060013-4.98999 -2.559998-4.149994-3.119995-9.100006-3.719986-13.829987 0.909988 0.199982 1.829987 0.419983 2.73999 0.639984 0.320007 0.27002 0.960007 0.820007 1.270004 1.089996 1.520004 1.380005 3.520004 1.940002 5.429993 2.559998 -2.729996-5.619995-6.979996-10.629974-7.539993-17.099976 2.669998-0.700012 5.319992-1.52002 7.929993-2.430023 2.600006-0.839996 5.210007-1.690002 7.710007-2.799988 1.220001-0.679993 2.369995-1.459991 3.539993-2.209991 -11.089996 1.319977-22.529999 3.019989-33.539993 0.299988 -9.75-2.570007-16.629997-10.529999-22.790001-18.01001 3.799995-7.639984 5.150002-16.139984 6.769997-24.440002 1.190002-6.839996 2.090004-14.019989 6.18-19.859985l0.000008 0z"/>
    <path id="svg_114" fill="#d49758" d="m88.610001 273.380005c4.330002-0.309998 9.239998-1.549988 12.959999 1.399994 -3.029999 6.279999-4.860001 13.170013-5.209999 20.140015 -0.099998 0.970001 0.239998 1.779999 1 2.440002 0.209999-7.970001 2.129997-15.800018 5.690002-22.930023 0.379997 0.540009 0.759995 1.080017 1.119995 1.630005 -4.540001 9.070007 0.07 19.070007-1.579994 28.559998 -0.480003 2.029999-1.270004 4.649994-3.630005 5.130005 -2.169998 0.160004-4.330002-0.26001-6.479996-0.5 1.769997-1.839996 3.489998-3.75 4.709999-6.01001 -3.840004-4.23999-4.810005-10.029999-5.93-15.429993 -0.300003-2.970001-3.300003-4.359985-5.529999-5.73999 1.949997-2.48999 1.939995-5.790009 2.879997-8.690002z"/>
    <path id="svg_115" fill="#c98c60" d="m216.729996 276.73999c-0.690002 0.290009-0.690002 0.290009 0 0z"/>
    <path id="svg_116" fill="#652900" d="m172.270004 287.429993c-2.429993-1.529999-4.029999-5.700012-1.910004-7.98999 0.26001 2.73999 0.880005 5.429993 1.910004 7.98999z"/>
    <path id="svg_117" fill="#d49758" d="m54.139999 282.779999c4.16 2.25 8.369999 4.519989 12.020004 7.559998 -0.260002 3.190002-2.790005 0.070007-4.070004-0.639984 -1.360001 1.189972-2.779999 2.349976-3.920002 3.759979 -0.98 2.01001 0.380001 3.890015 1.440002 5.51001 -0.799999 0.910004-1.59 1.829987-2.389999 2.75 -1.389999-1.279999-2.780003-2.549988-4.18-3.809998 -0.330002-5.080017 0.200001-10.140015 1.099998-15.130005z"/>
    <path id="svg_118" fill="#482816" d="m153.710007 290.25c-1.240005-1.51001-0.929993-3.48999-0.759995-5.269989 5.769989 3.589996 12.199997 6.22998 18.939987 7.259979 4.490005 0.480011 8.930008-0.649994 13.360001-1.179993l0 1.480011c-1.149994 1.559998-4.579987 3.369995-1.919998 5.169983 6.169998 3.580017 13.200012 0.700012 19.740005 0.210022 -4.889999 3.75-11.080002 5.309998-17.070007 6.209991 -5.949997 0.869995-12.389999 0.699982-17.759995-2.290009 -5.429993-2.970001-10.940002-6.419983-14.529999-11.589996z"/>
    <path id="svg_119" fill="#014697" d="m210.029999 291.019989c1.289993-0.410004 2.570007-0.809998 3.850006-1.209991 -1.960007 7.919983-1.279999 16.5-5.180008 23.889984 -2.910004 5.51001-7.360001 10.51001-13.149994 13.050018 -4.26001 2-8 5.179993-12.710007 6.109985 -2.660004 0.440002-5.339996 0.73999-8.009995 1.119995 6.75-6.089996 15.889999-8.209991 22.869995-13.929993 2.300003-0.959991 4.529999-2.170013 6.12001-4.139984 -1.160004 0.459991-2.310013 0.939972-3.450012 1.429993 3.290009-7.5 6.900009-14.970001 8.570007-23.050018 0.300003-1.109985 0.709991-2.190002 1.089996-3.269989z"/>
    <path id="svg_120" fill="#d49758" d="m59.009998 294.100006c0.950001-1.23999 2.18-2.209991 3.349998-3.209991 2.390003 2.22998 5.16 3.970001 8.02 5.5 -1.82 1.829987-3.669998 3.690002-4.860001 6.019989 -2.489998-2.339996-7.07-4.299988-6.509998-8.309998z"/>
    <path id="svg_121" fill="#e4b417" d="m65.620003 292.359985c0.480003-0.299988 1.449997-0.890015 1.940002-1.190002 2.119995 1.529999 4.139999 3.220001 5.849998 5.200012 -2.879997-0.710022-5.309998-2.480011-7.790001-4.01001z"/>
    <path id="svg_122" fill="#482816" d="m31.110001 309.929993c-4.32-4.339996-2.809999-12.059998 1.48-15.970001 0.630001 2.529999 0.57 5.820007 3.209999 7.23999 5.110001 2.619995 10.860001 0.279999 16.280003 0.490021l1.559998-0.02002 -0.599998-3.759979c1.400002 1.259979 2.790001 2.529999 4.18 3.809998 -0.959999 0.97998-1.91 1.959991-2.860001 2.959991 -0.299999-0.73999-0.899998-2.230011-1.200001-2.970001 -0.379997 3.380005-4.009998 3.679993-6.489998 4.799988 -5.02 1.680023-10.139999 4.130005-15.560001 3.420013z"/>
    <path id="svg_123" fill="#562d13" d="m172.919998 295l0.970001 0c-0.460007 3.279999 1.440002 5.859985 3.309998 8.309998 -3.589996-1.049988-4.699997-4.970001-4.279999-8.309998z"/>
    <path id="svg_124" fill="#0060b6" d="m179.869995 305.829987c10.5-0.75 21.869995-3.220001 29.070007-11.540009 -1.670013 8.080017-5.280014 15.550018-8.570007 23.050018 -4.550003 1.98999-9.610001 2.579987-14.529999 2.599976 -4.970001-2.909973-5.259995-9.039978-5.970001-14.109985z"/>
    <path id="svg_125" fill="#d69c0a" d="m73.410004 296.369995c0.5 0.549988 0.5 0.549988 0 0z"/>
    <path id="svg_126" fill="#ba743b" d="m65.519997 302.410004c1.190002-2.329987 3.040001-4.190002 4.860001-6.019989 1.659996 0.949982 3.32 1.929993 4.970001 2.910004 -1.529999 1.549988-2.920006 3.279999-4.779999 4.459991 -1.810005 1.059998-3.570007-0.679993-5.410004-0.709991l0.360001-0.640015z"/>
    <path id="svg_127" fill="#d49758" d="m77.389999 299.029999c3.409996 3.320007 6.900002 6.559998 10.440002 9.73999 -3.490005-0.75-7.130005-0.569977-10.560005-1.579987 -2.019997-0.890015-4.049995-1.779999-6.059998-2.670013 2.059998-1.829987 4.040001-3.75 6.18-5.48999z"/>
    <path id="svg_128" fill="#e7b119" d="m60.52 299.679993c1.440002 1.160004 2.869999 2.339996 4.280003 3.549988 -7.390003 7.950012-15.400002 15.290009-23.890003 22.059998 -3.579998 3.120026-7.5 5.850006-10.779999 9.290009 2.5-0.359985 4.170002-2.309998 6-3.809998 5.02-4.190002 10.049999-8.369995 15.09-12.540009 5.100002-4.339996 9.459999-9.459991 14.370003-13.97998 0.32-0.01001 0.959999-0.040009 1.279999-0.059998 -1.860001 3.119995-4.900002 5.48999-7.34 8.199982 -8.810001 8.420013-16.77 18.089996-27.57 24.070007 -3.320002-0.5-5.820002-2.790009-6.360001-6.130005 12.560001-9.100006 24.559998-19.070007 34.919998-30.649994z"/>
    <path id="svg_129" fill="#02145f" d="m169.160004 303.940002c0.600006-0.01001 1.809998-0.029999 2.410004-0.040009l-0.169998 0.700012c-0.770004 2.98999-1.400009 6.679993 0.799988 9.25 3.470001 3.820007 8.710007 5.269989 13.640015 6.089996 4.919998-0.019989 9.979996-0.609985 14.529999-2.600006 1.139999-0.48999 2.289993-0.970001 3.449997-1.429993 -1.589996 1.970001-3.820007 3.179993-6.12001 4.139984 -5.799988 0.670013-11.87999 1.900024-17.579987-0.049988 -3.26001-1.139984-6.600006-2.639984-8.920013-5.290009 -2.5-3.029999-1.87999-7.149994-2.039993-10.769989z"/>
    <path id="svg_130" fill="#024697" d="m172.199997 313.850006c-2.199997-2.570007-1.570007-6.26001-0.800003-9.25 2.820007 0.429993 5.650009 0.820007 8.470001 1.230011 0.710007 5.069977 1 11.199982 5.970001 14.109985 -4.929993-0.820007-10.169998-2.269989-13.639999-6.089996z"/>
    <path id="svg_131" fill="#02155d" d="m61.77 311.98999c1.16 0.339996 2.319996 0.679993 3.48 1.029999 3.209999 1.51001 6.620003 2.730011 9.370003 5.040009 -3.290001-0.899994-6.510002-2.080017-9.620003-3.480011 -1.110001-0.820007-2.169998-1.720001-3.23-2.589996z"/>
    <path id="svg_132" fill="#0060b6" d="m65.25 313.019989c13.809998 2.600006 27.839996 7.200012 42.049995 4.839996 0.490005 2.269989 0.980003 4.529999 1.390007 6.809998l0.289993 1.720001c-2.909996-1.959991-5.839996-3.910004-8.919998-5.589996 0.419998 5.190002 3.160004 9.779999 7.639999 12.480011 -1.839996 2.789978-3.209999 5.849976-4.029999 9.089996 -0.470001 0.009979-1.409996 0.040009-1.879997 0.049988 -2.080002-0.059998-4.139999 0.209991-6.139999 0.740021 2.360001 1.379974 4.769997 2.689972 7.18 3.98999 -0.260002 3.109985-1.600006 6.72998 0.43 9.519989 1.389999 2.170013 4.159996 2.230011 6.439995 2.559998l1.07 0.130005c0.860001-0.98999 1.730003-1.970001 2.610001-2.940002l0.349998 0.490021c1.800003 2.639984 4.540001 5.559998 3.360001 9.039978 -1.360001 3.700012-3.879997 6.830017-5.969994 10.140015 -2.830002 4.47998-7.070007 8.25-12.260002 9.690002 -3.620003 0.959991-7.310005-0.26001-10.880005-0.880005 -7.93-1.670013-16.129997-1.119995-24.079998-2.589996 -3.789997-0.77002-8.599998-2.730011-8.810001-7.240021 0.120003-4.549988 2.230003-8.829987 4.400002-12.73999 2.540001-1.579987 5.779999-0.649994 8.580002-0.419983 9.159996 3.879974 19.470001 5.879974 29.269997 3.419983 2.600006-0.609985 4.580002-2.470001 6.18-4.51001 -3.699997 1.580017-7.290001 3.850006-11.439995 3.910004 -8.340004 0.720001-16.630005-1.289978-24.240005-4.599976 -3.75-4.460022-3.329994-10.570007-5.209999-15.800018 -1.609997-4.639984-3.949997-9.320007-3.34-14.380005 0.620003-5.509979 3.450001-10.410004 5.710003-15.369995 3.110001 1.399994 6.330002 2.580017 9.620003 3.480011 -2.75-2.309998-6.160004-3.529999-9.370003-5.040009z"/>
    <path id="svg_133" fill="#014696" d="m100.059998 320.799988c3.080002 1.679993 6.010002 3.630005 8.919998 5.589996l-0.290001-1.720001c2.670006 1.279999 4.970001 3.160004 6.990005 5.320007 -2.380005 4.23999-4.340004 8.779999-7.660004 12.419983 -1.449997-0.009979-2.900002-0.029999-4.349998-0.039978 0.82-3.240021 2.190002-6.300018 4.029999-9.089996 -4.479996-2.700012-7.220001-7.290009-7.639999-12.480011z"/>
    <path id="svg_134" fill="#024697" d="m182.839996 332.859985c4.710007-0.929993 8.449997-4.109985 12.710007-6.109985 -2.320007 6.799988-3.130005 14.049988-2.790009 21.209991 0.290009 6.299988 1.979996 12.440002 2.360001 18.73999 2.289993-0.440002 5.380005-1.070007 6.690002 1.48999 2.569992 7.350006 3.929993 15.970001 0.300003 23.210022 -3.389999 0.23999-6.76001 0.639984-10.12001 1.149994 2.790009-3.980011 5.320007-8.51001 5.020004-13.540009 0.040009-2.809998-0.75-7.019989-4.229996-7.26001 -5.470001-0.399994-11.020004-0.009979-16.419998-1.179993 4.559998-0.829987 8.959991-2.329987 13.139999-4.309998 -0.610001-6.119995-1.389999-12.220001-2.169998-18.329987 -0.740005-5.210022 0.339996-11.51001-4.490005-15.070007z"/>
    <path id="svg_135" fill="#ffffff" d="m108.690002 344.190002c2.989998-3.390015 5.57-7.100006 7.550003-11.179993 7.110001 4.380005 15.309998 6.769989 23.520004 8.079987 0.289993 3.230011 1.949997 6.050018 3.229996 8.959991 -3.330002 3.850006-1.889999 9.180023-0.850006 13.640015 -4.539993 0.660004-8.809998 4.429993-8.910004 9.209991 -0.329987 6.529999-1.539993 13.630005 1.670013 19.670013 0.389999 2.600006-1.090012 4.529999-2.940002 6.139984 -0.01001-4.199982-1.710007-8.349976-5.540001-10.410004 -0.459999-4.839996-2.150002-9.409973-3.900002-13.909973 2.489998-4.830017 6.779999-10.809998 3.360001-16.220001 -2.910004-4.460022-7.529999-10.339996-13.590004-8.110016 -1.5-1.72998-3.400002-3.419983-3.599998-5.869995z"/>
    <path id="svg_136" fill="#020f53" d="m150.050003 337.820007c3.919998-0.25 7.669998-1.980011 11.649994-1.559998 -2.5 1.109985-5.110001 1.959991-7.709991 2.799988 -4.160004 0.130005-8.309998 0.070007-12.470001 0.140015 1.630005 6.290009 3.849991 12.769989 8.889999 17.179993 -0.559998-0.089996-1.680008-0.26001-2.240005-0.350006 -0.309998-0.269989-0.949997-0.819977-1.269989-1.089996 -0.880005-1.22998-1.690002-2.5-2.440002-3.790009 -1.550003-4.22998-2.770004-8.589996-4.520004-12.75 3.360001-0.369995 6.740005-0.349976 10.110001-0.579987z"/>
    <path id="svg_137" fill="#014697" d="m141.520004 339.200012c4.160004-0.070007 8.309998-0.01001 12.470001-0.140015 -2.610001 0.910004-5.259995 1.730011-7.930008 2.430023 0.560013 6.470001 4.810013 11.47998 7.540009 17.100006 -1.910004-0.620026-3.910004-1.180023-5.430008-2.560028 0.560013 0.090027 1.680008 0.26001 2.240005 0.350006 -5.039993-4.410004-7.259995-10.889984-8.889999-17.179993z"/>
    <path id="svg_138" fill="#024696" d="m95.650002 343.160004c2-0.529999 4.059998-0.799988 6.139999-0.73999l0.040001 0c-0.529999 0.389984-1.580002 1.160004-2.110001 1.549988 2.220001-0.410004 4.440002-0.790009 6.669998-1.100006 0.139999 4.440002 3 8.01001 6.790001 10.070007 -0.049995 0.730011-0.159996 2.200012-0.220001 2.929993 -1.089996 1.110016-2.18 2.230011-3.259995 3.360016 -2.279999-0.330017-5.050003-0.390015-6.440002-2.559998 -2.029999-2.790009-0.690002-6.410004-0.43-9.52002 -2.410004-1.299988-4.82-2.609985-7.18-3.98999z"/>
    <path id="svg_139" fill="#024697" d="m115 350.950012c4.779999 2.359985 9.489998 6.609985 10.199997 12.119995 -1.969994 9.459991-8.479996 17.089996-14.799995 24.070007l-0.060005 0.049988 -0.909996 0.710022c-5.82 3.509979-12.5 6.579987-19.470001 5.289978 -10.599998-0.819977-20.970001-3.459991-30.860001-7.319977 -3.389999-1.310028-7.889999-2.590027-8.449997-6.840027 -0.66-6.470001 2.559998-12.509979 5.149998-18.23999 0.850002-2.26001 3.010002-3.470001 5.260002-3.929993 2.129997 1.949982 4.399998 3.779999 7.009998 5.049988 -2.800003-0.22998-6.040001-1.160004-8.579998 0.420013 -2.170002 3.910004-4.280003 8.190002-4.400002 12.73999 0.209999 4.51001 5.02 6.470001 8.810001 7.23999 7.949997 1.470001 16.150002 0.920013 24.080002 2.590027 3.57 0.619995 7.259995 1.839996 10.879997 0.879974 5.190002-1.440002 9.43-5.209991 12.260002-9.689972 2.089996-3.310028 4.610001-6.440002 5.970001-10.140015 1.18-3.480011-1.560005-6.399994-3.360001-9.040009 -0.68-2.089996 0.239998-4.179993 1.269997-5.959991z"/>
    <path id="svg_140" fill="#014696" d="m144.460007 351.149994c0.75 1.290009 1.559998 2.559998 2.440002 3.790009 -0.910004-0.220001-1.830002-0.440002-2.740005-0.640015 0.600006 4.730011 1.160004 9.679993 3.720001 13.830017 1.75 2.829987 5.059998 3.98999 8.059998 4.98999 6.12001 1.869995 12.25 3.779999 18.540009 5.01001 -9.320007 2.399994-19.949997 1.139984-27.669998-4.880005 -2.710007-1.839996-3.080002-5.200012-3.100006-8.209991 0.199997-4.680023-2.619995-9.780029 0.75-13.890015z"/>
    <path id="svg_141" fill="#020f57" d="m61.09 353.980011c1.779999 2.51001 3.719997 5.089996 6.749996 6.149994 7.610001 3.309998 15.900002 5.320007 24.240005 4.600006 4.150002-0.059998 7.739998-2.329987 11.439995-3.910004 -1.599998 2.040009-3.579994 3.899994-6.18 4.51001 -9.799995 2.459991-20.110001 0.459991-29.269997-3.420013 -2.610001-1.269989-4.880001-3.100006-7.010002-5.049988 0.010002-0.720001 0.030003-2.160004 0.030003-2.880005z"/>
    <path id="svg_142" fill="#021560" d="m141.759995 365.720001c0.490005-0.170013 1.460007-0.51001 1.949997-0.679993 0.020004 3.009979 0.389999 6.369995 3.100006 8.209991 7.720001 6.019989 18.349991 7.279999 27.669998 4.880005 5.009995-0.820007 9.779999-2.649994 14.179993-5.160004 -4.519989 6.290009-13.159988 6.360016-20.099991 7.540009 -5.930008 0.97998-11.690002-1.050018-17.300003-2.700012 -2.509995-1.459991-5.080002-2.98999-6.979996-5.230011 -1.490005-1.98999-1.820007-4.539978-2.520004-6.859985z"/>
    <path id="svg_143" fill="#024697" d="m135.300003 371.869995c0.479996-3.220001 3.589996-5.209991 6.460007-6.149994 0.699997 2.320007 1.029999 4.869995 2.519989 6.859985 1.900009 2.240021 4.470001 3.77002 6.980011 5.230011 -3.389999-0.049988-6.780014 0.130005-10.170013 0.190002 -1.929993 4.5-3.069992 9.600006-1.610001 14.410004 1 3.279999 4.570007 4.539978 7.550003 5.380005 10.270004 2.639984 20.919998 0.869995 31.340012 0.470001 -2.820007 2.099976-5.580002 4.299988-8.570007 6.159973 -6.869995 0.930023-13.899994-0.359985-20.440002-2.509979 -6.48999-2.380005-12.849991-7.230011-14.349991-14.309998 -1.090012-5.180023-0.470001-10.550018 0.289993-15.730011z"/>
    <path id="svg_144" fill="#652a00" d="m110.400002 387.140015c4.340004-2.679993 6.980003-7.130005 10.279999-10.869995 2.150002 5.859985 4.779999 12.209991 2.949997 18.519989 -1.729996 3.910004-4.449997 7.51001-8.189995 9.679993 -2.340004 1.380005-4.260002 3.320007-5.870003 5.480011l-0.040001-0.279999c-0.339996-3.570007-1.649994-6.959991-2.079994-10.5 0.049995-4.200012 3.489998-7.709991 2.889999-11.980011l0.059998-0.049988z"/>
    <path id="svg_145" fill="#8c4201" d="m109.43 387.899994l0.909996-0.709991c0.600006 4.269989-2.839996 7.779999-2.889999 11.97998 0.43 3.540009 1.740005 6.930023 2.080002 10.5 -0.360001 1.779999-1.540001 3.210022-2.709999 4.529999l0.370003-1.720001c-4.560005 5.330017-9.360001 11.400024-16.709999 12.710022 0.369995 0.25 1.110001 0.75 1.470001 1 -0.660004 1.470001-2.43 1.380005-3.790001 1.509979l0.689995-0.429993c0.010002-0.329987 0.040001-0.97998 0.050003-1.299988 -1.959999 0.570007-4.199997 0.669983-5.889999 1.899994 1.330002 0.269989 2.669998 0.299988 4.029999 0.089996l-0.139999 0.640015c-4.139999 0.839996-8.330002 1.440002-12.550003 1.649994l-0.110001 1.279999c6.770004-0.610016 13.680008-1.470001 19.900002-4.399994 3.290001-1.470001 6.040001-3.839996 9.080002-5.740021 -3.190002 6.900024-10.599998 10.930023-17.870003 12.059998 -9.689995 1.590027-19.529999 2.110016-29.34 2.320007 -10.079998 0.26001-20.209999-2.029999-29.079998-6.850006 -1.380001 1.52002-2.77 3.029999-4.09 4.610016 0.139999-3.580017 3.789999-8.209991 7.58-6.040009 13.640001 5.76001 28.809999 4.51001 43.26 4.330017l0.059998-1.350006c-12.610001 1-25.52 1.079987-37.860001-2.080017 -2.450001-0.880005-5.85-1.169983-6.530001-4.22998 12.550001 5.099976 26.280001 5.649994 39.650003 5.079987 4-0.329987 8.279999 0.420013 12.080002-0.970001 -3.990005-0.709991-8.060005 0.059998-12.090004 0.01001 -13.200001 0.579987-26.77 0.049988-39.159998-5 0.599998-4.350006 0.949999-8.830017 2.65-12.929993 1.509998-3.790009 4.07-7.02002 6-10.580017 4.919998 1.940002 10.239998 1.26001 15.349998 0.709991 4.350002-0.509979 8.77 0.580017 13.079998-0.319977 1.630005-0.050018 1.970001-1.779999 2.520004-2.950012 8.540001 1.610016 15.549995 6.860016 23.479996 10.029999 0.840004 0.5 1.639999 1.080017 2.460007 1.640015 -2.980003-5.720001-8.960007-8.970001-14.420006-11.940002 -5.040001-2.809998-10.729996-4.119995-15.799995-6.830017 6.449997-0.769989 12.449997 2.600006 18.860001 2.880005 8.659996 1.5 18.699997 1.429993 25.419998-5.089996z"/>
    <path id="svg_146" fill="#b3570e" d="m48.990002 390.570007c4.290001-0.809998 8.830002-1.089996 13.060001 0.209991 7.599998 2.290009 15.169998 5.01001 21.970001 9.180023 3.259995 2.019989 6.659996 4.059998 8.889999 7.279999 -7.93-3.170013-14.940002-8.420013-23.480003-10.029999 -7.329998-4.210022-16.329998-4.600006-24.5-3.320007 -3.349998 0.269989-5.239998 3.059998-6.449997 5.880005 -1.93 3.559998-4.490002 6.789978-6 10.579987 -1.700001 4.100006-2.050001 8.580017-2.650002 12.929993l-1.280001-0.47998 -0.359999-0.160004c-0.540001-8.240021-0.190001-17.51001 5.450001-24.110016 3.719997-4.709991 9.649998-6.849976 15.349998-7.959991z"/>
    <path id="svg_147" fill="#e4bd96" d="m44.93 393.890015c8.169998-1.279999 17.169998-0.890015 24.5 3.320007 -0.550003 1.169983-0.889999 2.899994-2.519997 2.949982 -4.310005 0.900024-8.730003-0.190002-13.080002 0.320007 -5.110001 0.550018-10.43 1.230011-15.350002-0.709991 1.209999-2.820007 3.100002-5.610016 6.450001-5.880005z"/>
    <path id="svg_148" fill="#652a00" d="m125.519997 393.26001c1.199997-1.23999 2.780006-0.450012 3.209999 1.029999 0.710007 1.910004 1.720001 4.160004 0.740005 6.160004 -2.450005 5.359985-6.020004 10.149994-10.060005 14.419983 -0.57-0.419983-1.699997-1.25-2.269997-1.659973 -2.5 3.839996-4.520004 8.079987-7.990005 11.199982 -9.639999 9.980011-20.919998 20.160004-35.269997 21.890015 -17.200001 2.940002-35.970001 2.539978-51.389999-6.52002 0.039999-2.089996 0-4.199982 0.349998-6.25 1.320002-1.579987 2.710001-3.089996 4.09-4.609985 8.869999 4.820007 19 7.109985 29.080002 6.850006 9.810001-0.210022 19.649998-0.730011 29.34-2.320007 7.269997-1.130005 14.68-5.160004 17.870003-12.059998 0.959999-1.619995 2.399994-2.869995 3.519997-4.369995 2.120003-2.740021 3.150002-6.180023 5.440002-8.800018 2.259995-2.519989 5.669998-3.619995 7.889999-6.179993 2.409996-2.529999 3.75-5.790009 5.449997-8.779999z"/>
    <path id="svg_149" fill="#b3570e" d="m184.009995 397c8.860001-4.390015 19.339996-5.700012 28.839996-2.709991 5.550003 1.73999 9.490005 7.019989 10.360001 12.669983 0.710007 4.430023 1.479996 9.110016 0.169998 13.5l-1.649994-0.019989c-0.139999-3.980011-0.029999-8.059998-1.25-11.899994 -1.080002-3.390015-3.759995-5.860016-5.660004-8.76001 -1.319992-3.73999-5.190002-5.089996-8.869995-4.76001 -7 0.51001-14.330002 1.370026-20.410004 5.170013 -3.069992 1.380005-6.309998 2.399994-9.229996 4.089996 -3.300003 1.799988-6.169998 4.279999-9.550003 5.920013 -0.319992 0.099976-0.960007 0.299988-1.279999 0.409973 4.529999-6.389984 11.690002-10.169983 18.529999-13.609985z"/>
    <path id="svg_150" fill="#652a00" d="m136.910004 393.940002c4.160004 4.609985 9.559998 8.109985 15.690002 9.399994l-0.040009 0.209991c-0.720001 3.170013-1.479996 6.350006-1.959991 9.570007 -4.070007-3.109985-9.300003-5-11.930008-9.679993 -2.179993-2.679993-1.849991-6.279999-1.759995-9.5z"/>
    <path id="svg_151" fill="#e4bd96" d="m185.539993 400.190002c6.080002-3.799988 13.410004-4.660004 20.410004-5.170013 3.679993-0.329987 7.550003 1.02002 8.869995 4.76001 -3.770004 1.48999-7.779999 2.350006-11.860001 2.230011 -5.009995-0.190002-9.940002 1.23999-14.940002 0.910004 -1.549988 0.039978-2.019989-1.610016-2.479996-2.730011z"/>
    <path id="svg_152" fill="#652a00" d="m134.130005 399.980011c1.460007-0.519989 1.949997 1.429993 2.720001 2.23999 1.789993 2.779999 3.600006 5.76001 6.600006 7.369995 2.909988 1.590027 5.849991 3.400024 7.419998 6.450012 1.699997 3.23999 4.589996 5.529999 6.849991 8.320007 3.330002 5.51001 9.820007 8.940002 16.26001 8.540009 8.299988-0.25 16.369995-2.52002 24.610001-3.410004 7.559998-0.830017 14.87999-3.26001 22.479996-3.700012 2.369995-0.23999 4.410004 1.160004 6.459991 2.110016 -0.059998 2.949982-0.019989 5.899994-0.029999 8.859985 -11.080002 2.290009-22.12999 5.459991-33.539993 5.440002 -7.040009-0.029999-14.210007 0.040009-21.029999-1.890015 -7.820007-2.299988-14.180008-7.699982-20.180008-12.970001 -3.330002-2.859985-5.889999-6.429993-8.339996-10.029999 -0.680008 0.600006-1.350006 1.210022-2.029999 1.820007 -3.350006-3.589996-6.940002-7.109985-9.110001-11.579987 -1.270004-2.350006-0.860001-5.559998 0.860001-7.570007z"/>
    <path id="svg_153" fill="#8c4201" d="m176.309998 404.279999c2.919998-1.690002 6.160004-2.709991 9.229996-4.089996 0.460007 1.119995 0.930008 2.769989 2.480011 2.730011 5 0.329987 9.929993-1.100006 14.939987-0.910004 4.080002 0.119995 8.090012-0.740021 11.860001-2.230011 1.900009 2.899994 4.580002 5.369995 5.660004 8.76001 1.220001 3.839996 1.110001 7.919983 1.25 11.899994 -12.860001-0.48999-25.679993 1.660004-37.990005 5.290009 -4.409988 1.389984-9.069992 1.409973-13.639999 1.279999l0.100006 1.049988c3.899994 0.01001 7.800003-0.230011 11.690002-0.579987 -1 1.75-3.25 1.309998-4.900009 1.569977 -3.619995 0.27002-7.23999-0.369995-10.639999-1.599976l1.080002-0.060028 2.270004-0.109985c-5.809998-2.059998-11.550003-4.940002-15.199997-10.109985 -0.470001-0.160004-1.410004-0.470001-1.880005-0.630005l-0.550003-0.190002c-0.589996-1.040009-1.080002-2.110016-1.470001-3.230011 0.479996-3.220001 1.240005-6.399994 1.960007-9.570007 5.300003 1.200012 10.729996 1.76001 16.159988 1.529999 -2.089996 2.210022-4.169998 4.480011-5.659988 7.170013 0.779999-0.529999 1.550003-1.070007 2.309998-1.610016l0.110001-0.029999c0.319992-0.109985 0.959991-0.309998 1.279999-0.409973 3.380005-1.640015 6.25-4.120026 9.550003-5.920013z"/>
    <path id="svg_154" fill="#a04c03" d="m119.760002 416.130005c3.699997-3.589996 6.360001-8.01001 9.530006-12.029999 -1.580009 6.079987-6.340004 10.639984-10.630005 14.959991 -0.400002-0.299988-1.190002-0.889984-1.590004-1.179993 0.029999-0.700012 0.090004-2.100006 0.120003-2.790009 0.849998 0.339996 1.709999 0.690002 2.57 1.040009z"/>
    <path id="svg_155" fill="#a04c03" d="m133.380005 411.119995c3.289993 2.769989 5.529999 6.519989 8.679993 9.440002 0.820007-0.179993 2.450012-0.540009 3.270004-0.720001 -0.48999 1-0.98999 2-1.479996 3.01001 -4.070007-3.320007-8.169998-6.910004-10.470001-11.730011z"/>
    <path id="svg_156" fill="#fee1a6" d="m90.480003 425.190002c7.349998-1.309998 12.150002-7.380005 16.709999-12.709991l-0.370003 1.720001c-0.579994 1.179993-1.459999 2.179993-2.279999 3.209991 -0.040001 0.040009-0.110001 0.119995-0.150002 0.160004 -3.399994 3.73999-7.509995 7.169983-12.439995 8.619995 -0.360001-0.25-1.099998-0.75-1.470001-1z"/>
    <path id="svg_157" fill="#fee1a6" d="m152.619995 416.540009c0.470001 0.160004 1.410004 0.470001 1.880005 0.630005 3.649994 5.169983 9.389999 8.049988 15.199997 10.109985l-2.270004 0.110016c-6.080002-1.589996-11.319992-5.679993-14.809998-10.850006z"/>
    <path id="svg_158" fill="#ff7f00" d="m104.389999 417.570007c0.040001-0.040009 0.110001-0.119995 0.150002-0.160004 -0.040001 0.040009-0.110001 0.119995-0.150002 0.160004z"/>
    <path id="svg_159" fill="#fee1a6" d="m183.740005 425.730011c12.309998-3.630005 25.130005-5.779999 37.990005-5.290009l1.649994 0.02002c-0.559998 0.889984-1.339996 1.269989-2.339996 1.160004 -3.180008-0.01001-6.350006-0.060028-9.520004-0.060028l-0.029999 0.860016c-3.020004-0.119995-6.039993-0.070007-9.050003 0.029999l0.169998 1.019989c-1.779999-0.099976-3.559998-0.160004-5.329987-0.220001l0.409988 1.220001c-1.779999-0.089996-3.550003-0.139984-5.330002-0.199982l0.300003 1.220001c-1.440002-0.100006-2.869995-0.180023-4.300003-0.25l0.320007 1.23999c-1.410004-0.059998-2.820007-0.109985-4.229996-0.140015l0.179993 1.060028c-0.919998 0-1.830002 0.029999-2.740005 0.079987 -3.889999 0.350006-7.789993 0.589996-11.689987 0.579987l-0.100006-1.049988c4.570007 0.130005 9.229996 0.110016 13.639999-1.279999z"/>
    <path id="svg_160" fill="#f0ceb3" d="m28.549999 422.799988l1.280001 0.480011c12.390001 5.049988 25.959997 5.579987 39.159998 5 4.029999 0.049988 8.099998-0.720001 12.090004-0.01001 -3.800003 1.389984-8.080002 0.639984-12.080002 0.970001 -13.370003 0.570007-27.100002 0.019989-39.650002-5.080017l-0.800001-1.359985 0.000002 0z"/>
    <path id="svg_161" fill="#8c4201" d="m176.889999 430.119995c14.180008-1.459991 27.860001-6.220001 42.150009-6.890015 3.469986-0.189972 7.369995 1 8.48999 4.670013 -2.050003-0.950012-4.089996-2.350006-6.459991-2.109985 -7.600006 0.439972-14.920013 2.869995-22.480011 3.699982 -8.23999 0.890015-16.309998 3.160004-24.610001 3.410004 -6.440002 0.399994-12.929993-3.029999-16.259995-8.540009 5.809998 3.380005 12.229996 6.589996 19.169998 5.76001z"/>
    <path id="svg_162" fill="#8c4201" d="m86.690002 443.75c9.470001-4.75 17.199997-12.140015 24.470001-19.700012 -5.380005 11-15.300003 19.420013-26.150002 24.830017 -5.830002 3.139984-12.550003 3.679993-19.040001 4.070007 -10.720001 0.359985-21.59-0.200012-32.009998-2.910004 -4.35-1.320007-9.209999-2.77002-11.789999-6.850006 3.779999 0.040009 7.16 1.869995 10.769999 2.73999 11.190002 3.059998 22.93 3.730011 34.450005 2.559998 6.579994-0.73999 13.369995-1.579987 19.299995-4.73999z"/>
    <path id="svg_163" fill="#ffffff" d="m83.010002 427.869995c1.690002-1.230011 3.93-1.329987 5.889999-1.899994 -0.010002 0.320007-0.040001 0.970001-0.050003 1.299988l-0.689995 0.429993 -1.120003 0.26001c-1.360001 0.209991-2.699997 0.179993-4.029999-0.089996z"/>
    <path id="svg_164" fill="#652900" d="m151.990005 428.859985c4.929993 2.589996 8.610001 7.019989 13.639999 9.5 6.449997 3.799988 14.070007 4.700012 21.419998 4.839996 13.740005 0.850006 27.360001-2.059998 40.540009-5.669983 0.089996 0.569977 0.269989 1.709991 0.360001 2.289978 -6.75 4.420013-15.050003 4.920013-22.820007 5.990021 -4.889999 0.119995-9.729996 1.279999-14.610001 1.009979 -4.089996-0.929993-8.300003-1.059998-12.410004-0.179993 -10.689987-1.700012-20.12999-8.929993-26.119995-17.779999z"/>
    <path id="svg_165" fill="#904300" d="m178.110001 446.640015c4.110001-0.880005 8.319992-0.75 12.410004 0.179993 -4.130005 0.27002-8.300003 0.399994-12.410004-0.179993z"/>
  </g>
</svg>
