<?xml version="1.0" standalone="no"?>
<!DOCTYPE svg PUBLIC "-//W3C//DTD SVG 20010904//EN"
 "http://www.w3.org/TR/2001/REC-SVG-20010904/DTD/svg10.dtd">
<svg version="1.0" xmlns="http://www.w3.org/2000/svg"
 width="600.000000pt" height="420.000000pt" viewBox="0 0 600.000000 420.000000"
 preserveAspectRatio="xMidYMid meet">

<g transform="translate(0.000000,420.000000) scale(0.100000,-0.100000)"
fill="#000000" stroke="none">
<path d="M3633 4140 c-172 -35 -276 -201 -217 -349 14 -35 14 -42 0 -63 -8
-13 -22 -40 -31 -61 -15 -37 -15 -38 8 -46 52 -20 91 2 199 110 57 57 85 88
62 69 -22 -19 -10 -6 26 30 37 36 108 92 158 125 93 62 111 85 66 85 -16 0
-43 15 -71 40 -38 33 -127 74 -152 69 -3 -1 -25 -5 -48 -9z m80 -24 c-4 -8 -3
-8 7 1 13 12 70 -1 70 -17 0 -4 23 -23 50 -42 39 -27 47 -37 34 -42 -9 -3 -20
-3 -25 0 -5 3 -8 1 -7 -4 2 -5 -33 -36 -77 -69 -44 -33 -86 -67 -94 -76 -7 -9
-18 -14 -25 -10 -6 3 -8 2 -3 -2 9 -11 -53 -76 -65 -69 -5 3 -7 0 -6 -6 2 -6
-7 -18 -19 -27 -21 -14 -23 -13 -41 24 -11 21 -22 51 -26 67 -11 45 12 132 48
179 41 55 122 110 149 101 13 -4 17 -2 13 5 -5 7 -1 9 8 5 9 -3 13 -11 9 -18z"/>
<path d="M3688 4093 c7 -3 16 -2 19 1 4 3 -2 6 -13 5 -11 0 -14 -3 -6 -6z"/>
<path d="M3755 4090 c-3 -6 1 -7 9 -4 18 7 21 14 7 14 -6 0 -13 -4 -16 -10z"/>
<path d="M3810 4060 c0 -5 5 -10 11 -10 5 0 7 5 4 10 -3 6 -8 10 -11 10 -2 0
-4 -4 -4 -10z"/>
<path d="M3511 3880 c3 -95 16 -98 18 -5 1 49 -2 75 -9 75 -7 0 -10 -24 -9
-70z"/>
<path d="M3602 3840 c0 -14 2 -19 5 -12 2 6 2 18 0 25 -3 6 -5 1 -5 -13z"/>
<path d="M3520 3781 c0 -6 5 -13 10 -16 6 -3 10 1 10 9 0 9 -4 16 -10 16 -5 0
-10 -4 -10 -9z"/>
<path d="M3838 3946 c-41 -28 -92 -66 -112 -84 l-37 -32 24 -9 c41 -16 65 -4
63 31 0 19 6 34 16 41 24 16 56 -16 69 -68 l11 -42 74 -19 c41 -10 74 -21 74
-25 0 -22 -33 -182 -47 -224 -29 -91 -30 -92 -69 -54 l-33 32 -10 -25 c-5 -14
-15 -44 -21 -67 -7 -28 -15 -39 -23 -34 -44 26 -155 114 -160 126 -3 9 -3 25
0 37 5 18 2 21 -22 18 -25 -3 -29 2 -44 44 -9 26 -23 54 -32 63 -14 14 -17 13
-39 -10 -22 -24 -23 -26 -6 -44 10 -11 15 -24 12 -30 -4 -5 -2 -12 4 -16 16
-10 12 -25 -6 -25 -13 0 -14 -3 -4 -15 13 -16 4 -39 -11 -29 -6 3 -9 -2 -7
-12 3 -20 -5 -21 -67 -13 -27 4 -30 1 -27 -21 2 -18 0 -21 -6 -12 -7 11 -11 8
-15 -10 -14 -51 -9 -58 59 -89 41 -19 73 -27 86 -23 15 4 30 -4 58 -31 l38
-37 -14 -44 -13 -43 82 -76 c45 -42 119 -107 163 -143 l81 -67 23 -85 c12 -47
53 -177 90 -290 73 -219 85 -274 125 -585 14 -110 28 -217 31 -237 l6 -38
-660 0 -659 0 -194 -65 c-107 -36 -202 -65 -211 -65 -24 0 -23 28 2 158 11 56
20 109 20 117 0 13 -50 15 -354 15 -347 0 -354 0 -381 -22 -35 -27 -70 -103
-90 -193 l-16 -71 -517 58 c-284 31 -518 56 -520 53 -2 -2 -11 -45 -19 -97
-10 -65 -15 -184 -16 -403 -2 -300 6 -420 32 -489 l11 -26 538 0 539 0 18 -41
c33 -71 19 -69 417 -69 l358 0 15 23 c8 13 18 37 21 55 l7 32 881 0 c770 -1
879 -2 862 -15 -11 -8 -44 -22 -74 -31 -77 -22 -122 -68 -122 -124 0 -58 14
-78 63 -91 55 -15 126 -6 260 32 72 20 118 28 138 24 48 -11 108 4 126 31 13
20 14 37 6 99 -8 66 -7 75 6 73 10 -2 17 -15 19 -33 1 -17 7 -56 13 -87 9 -52
8 -60 -11 -86 -12 -16 -42 -42 -66 -57 -53 -34 -74 -69 -74 -123 0 -46 18 -65
75 -81 87 -24 186 -6 252 46 21 16 57 40 81 53 50 28 58 49 47 128 -12 86 -6
310 12 467 17 154 14 356 -6 393 -10 19 -15 21 -27 11 -8 -6 -16 -10 -19 -8
-2 3 -15 44 -29 91 -57 198 -122 611 -136 868 -10 182 -27 256 -85 388 -19 44
-35 87 -35 95 0 56 -197 673 -242 759 -48 92 -189 215 -285 250 -18 7 -33 15
-33 19 0 4 -28 23 -62 42 -70 39 -87 62 -117 160 -35 115 -34 114 -123 53z
m510 -1605 c45 -10 85 -21 88 -24 9 -8 -14 -135 -29 -158 -10 -15 -24 -19 -74
-19 -49 0 -61 -3 -57 -14 11 -28 -15 -25 -46 4 -32 29 -33 33 -28 93 6 70 30
137 50 137 7 0 50 -9 96 -19z m-1917 -622 c-5 -13 -10 -19 -10 -12 -1 15 10
45 15 40 3 -2 0 -15 -5 -28z m-17 -73 c-3 -21 -8 -35 -11 -32 -2 2 -1 20 3 40
3 21 8 35 11 32 2 -2 1 -20 -3 -40z m1783 -93 c-2 -16 -4 -5 -4 22 0 28 2 40
4 28 2 -13 2 -35 0 -50z m-1800 -10 c-3 -10 -5 -4 -5 12 0 17 2 24 5 18 2 -7
2 -21 0 -30z m1810 -70 c-3 -10 -5 -2 -5 17 0 19 2 27 5 18 2 -10 2 -26 0 -35z
m-1820 -25 c-2 -13 -4 -3 -4 22 0 25 2 35 4 23 2 -13 2 -33 0 -45z m85 -25
c-5 -59 -10 -63 -11 -10 -1 26 3 47 7 47 4 0 6 -17 4 -37z m1748 -20 c0 -45
-8 -40 -13 10 -2 20 0 34 4 31 5 -3 9 -21 9 -41z m-1840 -18 c0 -13 -48 -15
-377 -13 l-378 3 373 2 c236 2 372 7 372 13 0 6 2 10 5 10 3 0 5 -7 5 -15z
m-753 -57 c-3 -7 -5 -2 -5 12 0 14 2 19 5 13 2 -7 2 -19 0 -25z m830 -80 c-2
-24 -4 -7 -4 37 0 44 2 63 4 43 2 -21 2 -57 0 -80z m1773 81 c0 -11 -7 -22
-16 -26 -13 -5 -15 -16 -11 -62 3 -36 2 -47 -3 -31 -14 44 -11 88 6 98 11 6
15 17 11 31 -3 11 -1 19 4 15 5 -3 9 -14 9 -25z m-2610 -129 l0 -50 -517 2
-518 3 513 2 512 3 0 45 c0 25 2 45 5 45 3 0 5 -22 5 -50z m2600 -35 c0 -13
-104 -15 -887 -13 l-888 3 883 2 c576 2 882 7 882 13 0 6 2 10 5 10 3 0 5 -7
5 -15z"/>
</g>
</svg>
