<?xml version="1.0" standalone="no"?>
<!DOCTYPE svg PUBLIC "-//W3C//DTD SVG 20010904//EN"
 "http://www.w3.org/TR/2001/REC-SVG-20010904/DTD/svg10.dtd">
<svg version="1.0" xmlns="http://www.w3.org/2000/svg"
 width="188.000000pt" height="198.000000pt" viewBox="0 0 188.000000 198.000000"
 preserveAspectRatio="xMidYMid meet">
<metadata>
Created by potrace 1.16, written by Peter Selinger 2001-2019
</metadata>
<g transform="translate(0.000000,198.000000) scale(0.100000,-0.100000)"
fill="#000000" stroke="none">
<path d="M754 1840 c-81 -26 -94 -42 -57 -68 15 -10 45 -25 65 -33 33 -11 40
-11 56 4 33 30 176 19 186 -15 3 -7 7 -26 11 -42 l6 -29 15 27 c19 38 21 113
3 131 -17 17 -90 34 -169 41 -38 3 -74 -2 -116 -16z"/>
<path d="M826 1478 c-8 -13 -18 -49 -22 -81 l-7 -57 102 0 101 0 0 44 c0 25 4
56 9 70 16 41 -7 50 -66 27 -48 -19 -49 -19 -75 0 l-27 20 -15 -23z"/>
<path d="M1096 1458 c-9 -13 -19 -45 -22 -70 -5 -37 -2 -52 13 -75 39 -54 75
-136 88 -201 8 -36 12 -69 9 -73 -2 -4 0 -19 6 -34 9 -24 14 -26 62 -23 48 3
52 5 60 33 4 16 4 32 -1 35 -4 3 -11 37 -14 75 -4 39 -16 108 -28 155 -34 135
-65 184 -126 196 -26 5 -34 2 -47 -18z"/>
<path d="M688 1454 c-15 -8 -32 -22 -37 -32 -25 -48 -62 -182 -64 -231 -1 -63
11 -199 19 -213 3 -4 30 -8 60 -8 52 0 54 1 54 28 0 15 -4 44 -9 65 -5 22 -6
67 -1 105 11 88 19 302 11 302 -3 -1 -18 -7 -33 -16z"/>
<path d="M914 788 c-17 -8 -25 -29 -41 -116 -11 -59 -19 -109 -17 -111 2 -2
32 10 68 27 l65 30 -15 64 c-9 34 -18 75 -21 91 -6 30 -8 30 -39 15z"/>
<path d="M440 612 c0 -71 4 -112 12 -120 16 -16 228 -16 263 0 25 11 25 13 25
120 l0 108 -150 0 -150 0 0 -108z"/>
</g>
</svg>
