<?xml version="1.0" standalone="no"?>
<!DOCTYPE svg PUBLIC "-//W3C//DTD SVG 20010904//EN"
 "http://www.w3.org/TR/2001/REC-SVG-20010904/DTD/svg10.dtd">
<svg version="1.0" xmlns="http://www.w3.org/2000/svg"
 width="179.000000pt" height="259.000000pt" viewBox="0 0 179.000000 259.000000"
 preserveAspectRatio="xMidYMid meet">

<g transform="translate(0.000000,259.000000) scale(0.100000,-0.100000)"
fill="#000000" stroke="none">
<path d="M799 2498 c-46 -12 -82 -51 -97 -104 -19 -66 -18 -68 38 -61 28 3 50
2 50 -2 0 -12 -45 -22 -64 -15 -13 5 -13 0 -4 -33 7 -21 17 -45 24 -53 7 -9
17 -25 21 -37 5 -15 13 -19 21 -14 13 8 8 26 -23 80 -15 27 -9 49 8 32 18 -18
27 -12 27 19 0 17 3 31 8 31 33 7 72 6 72 -2 0 -5 4 -9 8 -9 5 0 4 30 -2 66
-8 47 -17 71 -33 84 -12 9 -19 20 -16 24 4 3 4 6 2 5 -2 -1 -20 -5 -40 -11z"/>
<path d="M873 2503 c9 -2 23 -2 30 0 6 3 -1 5 -18 5 -16 0 -22 -2 -12 -5z"/>
<path d="M953 2479 c21 -19 39 -44 40 -56 1 -13 5 -23 10 -23 4 0 5 -4 2 -10
-3 -5 -1 -10 5 -10 6 0 9 -4 6 -8 -3 -5 2 -9 10 -9 11 0 14 6 9 21 -4 12 -8
31 -9 43 0 11 -4 19 -8 16 -5 -2 -8 0 -8 6 0 5 6 12 13 15 6 3 1 3 -12 0 -20
-5 -23 -3 -17 11 4 12 2 16 -8 12 -8 -3 -16 -2 -18 2 -2 5 -14 12 -28 16 -22
6 -20 3 13 -26z"/>
<path d="M1041 2434 c0 -11 3 -14 6 -6 3 7 2 16 -1 19 -3 4 -6 -2 -5 -13z"/>
<path d="M1073 2375 c0 -8 4 -15 9 -15 4 0 8 4 8 9 0 6 -4 12 -8 15 -5 3 -9
-1 -9 -9z"/>
<path d="M953 2333 c9 -2 23 -2 30 0 6 3 -1 5 -18 5 -16 0 -22 -2 -12 -5z"/>
<path d="M763 2140 c-4 -14 -30 -27 -102 -51 -169 -56 -187 -83 -225 -329 -9
-58 -16 -139 -16 -180 0 -41 -5 -110 -12 -152 l-11 -77 -36 19 c-75 38 -141
42 -141 10 0 -5 44 -31 98 -56 53 -26 112 -60 130 -75 37 -33 69 -43 113 -37
22 3 28 1 25 -8 -3 -8 0 -16 6 -20 13 -8 1 -543 -13 -614 -38 -185 -50 -270
-45 -317 7 -64 14 -83 31 -83 8 0 17 -9 20 -20 3 -11 12 -20 19 -20 7 0 35
-12 61 -26 37 -19 64 -26 111 -26 77 0 104 13 104 52 0 17 -4 30 -10 30 -5 0
-24 9 -42 21 -25 16 -28 20 -10 16 27 -6 30 3 36 123 4 92 29 301 47 390 22
116 32 160 36 156 3 -2 -3 -45 -11 -95 -18 -100 -23 -535 -7 -560 5 -7 14 -10
20 -7 6 4 15 -4 21 -20 10 -26 12 -27 79 -21 46 4 85 1 117 -9 92 -28 184 -13
184 30 0 16 -11 22 -106 61 l-40 16 -3 219 c-2 180 1 228 14 272 24 77 31 280
22 618 -4 162 -6 317 -5 344 3 44 5 48 18 35 31 -30 73 -59 86 -59 22 0 18
123 -6 200 -32 100 -82 158 -162 187 -27 10 -48 21 -48 24 0 6 -66 49 -75 49
-2 0 -2 -12 0 -27 2 -16 -1 -41 -7 -57 -10 -25 -15 -28 -47 -22 -53 8 -164 67
-176 94 -12 27 -35 29 -42 2z m-102 -575 c-28 -143 -30 -145 -27 -25 2 125 14
171 28 110 5 -19 4 -57 -1 -85z m-23 -292 c-13 -16 -13 -16 -22 20 -6 26 -6
27 13 10 15 -13 18 -20 9 -30z m72 -12 c0 -26 -17 -36 -36 -20 -14 12 -14 14
2 26 25 18 34 16 34 -6z m109 -48 l25 -16 -37 -33 c-53 -49 -92 -45 -46 5 17
18 18 25 9 36 -7 8 -20 15 -29 15 -14 0 -14 2 -1 10 17 11 44 5 79 -17z"/>
<path d="M1521 1838 c0 -13 4 -32 9 -43 7 -15 9 -10 9 23 1 23 -3 42 -9 42 -5
0 -10 -10 -9 -22z"/>
<path d="M1451 1724 c0 -11 3 -14 6 -6 3 7 2 16 -1 19 -3 4 -6 -2 -5 -13z"/>
</g>
</svg>
